<svg width="642" height="652" viewBox="0 0 642 652" fill="none" xmlns="http://www.w3.org/2000/svg">
<path opacity="0.33" d="M8.707 202.92L185.835 202.343L140.647 192.776C140.647 192.776 142.49 140.13 120.357 150.652C98.2241 161.175 97.3026 184.15 97.3026 184.15C97.3026 184.15 89.0086 163.088 77.0126 170.741C65.0325 178.394 59.4874 191.803 59.4874 191.803C59.4874 191.803 55.1815 176.646 47.5073 175.788C40.9293 175.046 28.4408 189.461 21.8788 197.576L8.707 202.92Z" fill="#CCDBCA"/>
<path opacity="0.33" d="M495.871 288.322L642 287.893L604.725 280.785C604.725 280.785 606.25 241.662 587.994 249.497C569.738 257.315 568.975 274.385 568.975 274.385C568.975 274.385 562.127 258.733 552.245 264.423C542.362 270.113 537.786 280.075 537.786 280.075C537.786 280.075 534.243 268.811 527.903 268.184C522.485 267.639 512.173 278.344 506.771 284.364L495.871 288.322Z" fill="#CCDBCA"/>
<path opacity="0.33" d="M258.16 70.9563L404.289 70.478L367.014 62.5777C367.014 62.5777 368.539 19.1507 350.283 27.8262C332.027 36.5182 331.264 55.469 331.264 55.469C331.264 55.469 324.416 38.1016 314.533 44.4185C304.65 50.7355 300.075 61.786 300.075 61.786C300.075 61.786 296.531 49.284 290.192 48.5748C284.774 47.9646 274.462 59.8563 269.06 66.5526L258.16 70.9563Z" fill="#CCDBCA"/>
<path d="M515.208 44.6986L504.102 48.7065L499.287 34.2913C490.406 7.72054 462.33 -6.39776 436.749 2.82202C411.153 12.0418 397.568 41.169 406.466 67.7398L411.28 82.155L400.126 86.1794C391.451 89.2966 386.795 99.2586 389.814 108.264L421.178 202.029C424.229 211.166 433.842 216.015 442.517 212.898L557.615 171.417C566.417 168.25 571.089 158.255 568.022 149.118L536.658 55.3533C533.623 46.3315 524.01 41.5154 515.208 44.6986ZM427.423 60.1859C422.545 45.6222 429.997 29.6567 444.026 24.5932C458.056 19.5463 473.421 27.2816 478.298 41.8453L483.113 56.2604L432.253 74.5845L427.423 60.1859ZM494.124 145.654L502.132 169.603C502.465 170.609 501.893 171.648 500.908 172.011L489.865 175.986C489.023 176.282 487.943 175.854 487.593 174.831L479.585 150.883C471.021 150.569 463.045 144.962 460.026 135.956C456.15 124.378 462.076 111.662 473.278 107.637C484.463 103.613 496.698 109.765 500.574 121.36C503.577 130.365 500.654 139.898 494.124 145.654Z" fill="#ADBFEA"/>
<path d="M439.085 507.947C436.352 502.422 442.755 496.484 448.65 495.396C454.545 494.307 461.218 495.132 465.921 491.273C472.197 486.11 471.863 474.878 478.823 470.771C484.4 467.473 491.772 470.623 497.683 468.017C505.023 464.768 507.089 454.163 514.286 450.6C520.022 447.763 527.522 450.963 530.461 456.835C533.385 462.69 532.05 470.26 527.982 475.34C524.805 479.315 520.102 482.102 518.131 486.836C515.049 494.258 519.911 503.247 517.083 510.768C511.824 524.655 487.021 520.482 482.715 534.716C481.762 537.883 482.159 541.297 481.905 544.612C481.158 554.459 474.469 563.068 466.207 567.983C457.945 572.898 448.269 574.597 438.767 575.29C434.89 575.57 430.791 575.653 427.327 573.805C424.07 572.073 421.798 568.824 420.034 565.509C408.61 544.002 403.907 516.013 439.085 507.947Z" fill="#78BA9A"/>
<path d="M256.095 496.534C262.228 492.328 258.812 481.987 253.139 477.138C247.467 472.289 239.84 469.006 237.06 461.931C233.342 452.497 240.206 440.671 235.169 431.929C231.117 424.92 221.394 423.666 216.595 417.184C210.621 409.136 214.577 396.485 208.937 388.173C204.44 381.542 194.558 380.289 188.027 384.725C181.497 389.162 178.542 398.101 179.94 406.068C181.036 412.302 184.452 418.223 183.817 424.524C182.816 434.387 172.393 440.951 171.058 450.781C168.611 468.924 197.576 479.958 193.922 497.886C193.112 501.878 190.697 505.275 189.044 508.986C184.119 519.987 186.279 533.38 192.285 543.804C198.275 554.227 207.634 562.095 217.39 568.758C221.378 571.48 225.699 574.135 230.482 574.316C234.978 574.498 239.268 572.453 243.098 569.995C267.773 554.145 289.048 527.129 256.095 496.534Z" fill="#FFA938"/>
<path d="M417.047 519.278C425.627 515.435 433.349 508.327 439.752 501.466C457.023 482.96 467.732 458.781 473.373 433.892C478.473 411.379 479.601 388.09 478.537 365.049C478.441 363.103 475.518 363.086 475.597 365.049C477.997 416.822 468.082 480.371 423.451 511.873C420.956 513.638 418.334 515.402 415.554 516.639C413.838 517.431 415.331 520.053 417.047 519.278Z" fill="#E1806D"/>
<path d="M473.786 425.2C473.786 425.2 476.614 408.426 498.016 405.771C498.016 405.771 490.199 425.612 473.786 425.2Z" fill="#E1806D"/>
<path d="M466.763 449.99C466.763 449.99 473.278 434.37 494.696 436.976C494.696 436.96 482.636 454.377 466.763 449.99Z" fill="#E1806D"/>
<path d="M457.675 471.843C457.675 471.843 467.399 458.137 487.705 465.658C487.705 465.642 472.197 479.809 457.675 471.843Z" fill="#E1806D"/>
<path d="M477.075 399.14C477.075 399.14 479.856 382.647 500.892 380.041C500.892 380.041 493.218 399.569 477.075 399.14Z" fill="#E1806D"/>
<path d="M477.361 370.492C477.361 370.492 465.381 359.293 474.422 339.402C474.422 339.402 486.275 356.505 477.361 370.492Z" fill="#E1806D"/>
<path d="M477.425 387.497C477.425 387.497 461.568 384.462 459.248 362.592C459.248 362.575 477.981 370.739 477.425 387.497Z" fill="#E1806D"/>
<path d="M475.852 412.616C475.852 412.616 459.995 409.581 457.675 387.711C457.675 387.711 476.392 395.858 475.852 412.616Z" fill="#E1806D"/>
<path d="M471.72 436.135C471.72 436.135 456.102 431.946 455.276 409.96C455.276 409.976 473.405 419.46 471.72 436.135Z" fill="#E1806D"/>
<path d="M464.539 459.638C464.539 459.638 448.92 455.449 448.094 433.463C448.078 433.48 466.207 442.964 464.539 459.638Z" fill="#E1806D"/>
<path d="M419.764 578.291H259.097C240.539 578.291 225.493 562.672 225.493 543.408V149.349C225.493 130.085 240.539 114.465 259.097 114.465H419.764C438.322 114.465 453.369 130.085 453.369 149.349V543.424C453.369 562.672 438.322 578.291 419.764 578.291Z" fill="#4271E9"/>
<path d="M419.319 561.897H259.542C246.545 561.897 236.011 550.961 236.011 537.47V152.532C236.011 139.04 246.545 128.105 259.542 128.105H419.319C432.316 128.105 442.851 139.04 442.851 152.532V537.47C442.851 550.961 432.316 561.897 419.319 561.897Z" fill="#EFEBEB"/>
<path d="M401.333 128.105H387.876C383.745 128.105 380.408 131.585 380.408 135.857V141.399C380.408 145.687 377.055 149.151 372.94 149.151H312.96C308.829 149.151 305.493 145.671 305.493 141.399V135.857C305.493 131.569 302.14 128.105 298.025 128.105H259.828V124.13H401.349V128.105H401.333Z" fill="#4271E9"/>
<path d="M345.183 194.953C346.057 194.458 346.66 193.518 346.66 192.413C346.66 190.813 345.405 189.527 343.88 189.527C342.339 189.527 341.099 190.813 341.099 192.413C341.099 193.518 341.703 194.458 342.577 194.953C340.813 195.53 339.542 197.245 339.542 199.258V201.534H348.233V199.258C348.217 197.245 346.946 195.53 345.183 194.953Z" fill="#37366A"/>
<path d="M309.329 213.608C308.911 213.608 308.534 213.516 308.196 213.331C307.863 213.146 307.6 212.891 307.407 212.565C307.218 212.236 307.123 211.868 307.123 211.462C307.123 211.057 307.218 210.691 307.407 210.366C307.6 210.036 307.865 209.779 308.202 209.594C308.54 209.409 308.917 209.317 309.335 209.317C309.649 209.317 309.938 209.369 310.203 209.474C310.468 209.578 310.693 209.731 310.878 209.932L310.595 210.215C310.265 209.881 309.85 209.715 309.347 209.715C309.014 209.715 308.711 209.791 308.437 209.944C308.164 210.096 307.949 210.305 307.792 210.57C307.64 210.836 307.563 211.133 307.563 211.462C307.563 211.792 307.64 212.089 307.792 212.354C307.949 212.62 308.164 212.828 308.437 212.981C308.711 213.134 309.014 213.21 309.347 213.21C309.854 213.21 310.269 213.041 310.595 212.704L310.878 212.987C310.693 213.188 310.466 213.343 310.197 213.451C309.932 213.556 309.643 213.608 309.329 213.608ZM312.148 211.022C312.249 210.809 312.397 210.649 312.594 210.54C312.795 210.432 313.042 210.378 313.336 210.378V210.793L313.233 210.787C312.9 210.787 312.639 210.89 312.45 211.095C312.261 211.3 312.166 211.587 312.166 211.957V213.572H311.739V210.402H312.148V211.022ZM316.841 212.119H314.189C314.214 212.449 314.34 212.716 314.569 212.921C314.798 213.122 315.087 213.222 315.437 213.222C315.634 213.222 315.815 213.188 315.979 213.12C316.144 213.047 316.287 212.943 316.407 212.806L316.648 213.084C316.508 213.252 316.331 213.381 316.118 213.469C315.909 213.558 315.678 213.602 315.425 213.602C315.099 213.602 314.81 213.534 314.557 213.397C314.308 213.256 314.113 213.064 313.972 212.818C313.832 212.573 313.762 212.296 313.762 211.987C313.762 211.677 313.828 211.4 313.96 211.155C314.097 210.91 314.282 210.719 314.515 210.582C314.752 210.446 315.017 210.378 315.31 210.378C315.604 210.378 315.867 210.446 316.1 210.582C316.333 210.719 316.516 210.91 316.648 211.155C316.781 211.396 316.847 211.673 316.847 211.987L316.841 212.119ZM315.31 210.745C315.005 210.745 314.748 210.844 314.539 211.041C314.334 211.233 314.218 211.487 314.189 211.8H316.437C316.409 211.487 316.291 211.233 316.082 211.041C315.877 210.844 315.62 210.745 315.31 210.745ZM318.739 210.378C319.153 210.378 319.47 210.482 319.691 210.691C319.912 210.896 320.023 211.201 320.023 211.607V213.572H319.613V213.078C319.516 213.242 319.374 213.371 319.185 213.463C319 213.556 318.779 213.602 318.522 213.602C318.168 213.602 317.887 213.518 317.678 213.349C317.469 213.18 317.365 212.957 317.365 212.68C317.365 212.411 317.461 212.194 317.654 212.029C317.851 211.864 318.162 211.782 318.588 211.782H319.595V211.589C319.595 211.316 319.518 211.109 319.366 210.968C319.213 210.824 318.99 210.751 318.697 210.751C318.496 210.751 318.303 210.785 318.118 210.854C317.933 210.918 317.775 211.008 317.642 211.125L317.449 210.805C317.61 210.669 317.803 210.564 318.028 210.492C318.253 210.416 318.49 210.378 318.739 210.378ZM318.588 213.264C318.829 213.264 319.036 213.21 319.209 213.102C319.382 212.989 319.51 212.828 319.595 212.62V212.101H318.6C318.058 212.101 317.787 212.29 317.787 212.668C317.787 212.853 317.857 212.999 317.998 213.108C318.138 213.212 318.335 213.264 318.588 213.264ZM322.854 213.379C322.774 213.451 322.673 213.507 322.553 213.548C322.436 213.584 322.314 213.602 322.185 213.602C321.888 213.602 321.659 213.522 321.498 213.361C321.338 213.2 321.257 212.973 321.257 212.68V210.763H320.691V210.402H321.257V209.709H321.685V210.402H322.649V210.763H321.685V212.656C321.685 212.845 321.731 212.989 321.824 213.09C321.92 213.186 322.057 213.234 322.233 213.234C322.322 213.234 322.406 213.22 322.487 213.192C322.571 213.164 322.643 213.124 322.704 213.072L322.854 213.379ZM326.282 212.119H323.63C323.654 212.449 323.781 212.716 324.01 212.921C324.239 213.122 324.528 213.222 324.877 213.222C325.074 213.222 325.255 213.188 325.42 213.12C325.585 213.047 325.727 212.943 325.848 212.806L326.089 213.084C325.948 213.252 325.771 213.381 325.558 213.469C325.35 213.558 325.118 213.602 324.865 213.602C324.54 213.602 324.251 213.534 323.998 213.397C323.748 213.256 323.554 213.064 323.413 212.818C323.272 212.573 323.202 212.296 323.202 211.987C323.202 211.677 323.268 211.4 323.401 211.155C323.537 210.91 323.722 210.719 323.955 210.582C324.192 210.446 324.458 210.378 324.751 210.378C325.044 210.378 325.307 210.446 325.54 210.582C325.773 210.719 325.956 210.91 326.089 211.155C326.221 211.396 326.288 211.673 326.288 211.987L326.282 212.119ZM324.751 210.745C324.445 210.745 324.188 210.844 323.979 211.041C323.775 211.233 323.658 211.487 323.63 211.8H325.878C325.85 211.487 325.731 211.233 325.522 211.041C325.317 210.844 325.06 210.745 324.751 210.745ZM331.472 212.445H329.122L328.615 213.572H328.151L330.08 209.353H330.52L332.448 213.572H331.978L331.472 212.445ZM331.309 212.083L330.297 209.817L329.284 212.083H331.309ZM334.34 213.602C334.027 213.602 333.746 213.534 333.497 213.397C333.252 213.26 333.059 213.07 332.918 212.824C332.777 212.575 332.707 212.296 332.707 211.987C332.707 211.677 332.777 211.4 332.918 211.155C333.059 210.91 333.252 210.719 333.497 210.582C333.746 210.446 334.027 210.378 334.34 210.378C334.614 210.378 334.857 210.432 335.07 210.54C335.287 210.645 335.457 210.799 335.582 211.004L335.262 211.221C335.158 211.065 335.025 210.948 334.865 210.872C334.704 210.791 334.529 210.751 334.34 210.751C334.111 210.751 333.904 210.803 333.72 210.908C333.539 211.008 333.396 211.153 333.292 211.342C333.191 211.531 333.141 211.746 333.141 211.987C333.141 212.232 333.191 212.449 333.292 212.638C333.396 212.822 333.539 212.967 333.72 213.072C333.904 213.172 334.111 213.222 334.34 213.222C334.529 213.222 334.704 213.184 334.865 213.108C335.025 213.031 335.158 212.915 335.262 212.758L335.582 212.975C335.457 213.18 335.287 213.337 335.07 213.445C334.853 213.55 334.61 213.602 334.34 213.602ZM337.683 213.602C337.37 213.602 337.089 213.534 336.84 213.397C336.595 213.26 336.402 213.07 336.261 212.824C336.12 212.575 336.05 212.296 336.05 211.987C336.05 211.677 336.12 211.4 336.261 211.155C336.402 210.91 336.595 210.719 336.84 210.582C337.089 210.446 337.37 210.378 337.683 210.378C337.957 210.378 338.2 210.432 338.413 210.54C338.63 210.645 338.8 210.799 338.925 211.004L338.605 211.221C338.501 211.065 338.368 210.948 338.208 210.872C338.047 210.791 337.872 210.751 337.683 210.751C337.454 210.751 337.247 210.803 337.063 210.908C336.882 211.008 336.739 211.153 336.635 211.342C336.534 211.531 336.484 211.746 336.484 211.987C336.484 212.232 336.534 212.449 336.635 212.638C336.739 212.822 336.882 212.967 337.063 213.072C337.247 213.172 337.454 213.222 337.683 213.222C337.872 213.222 338.047 213.184 338.208 213.108C338.368 213.031 338.501 212.915 338.605 212.758L338.925 212.975C338.8 213.18 338.63 213.337 338.413 213.445C338.196 213.55 337.953 213.602 337.683 213.602ZM341.008 213.602C340.703 213.602 340.428 213.534 340.183 213.397C339.938 213.256 339.745 213.064 339.604 212.818C339.463 212.573 339.393 212.296 339.393 211.987C339.393 211.677 339.463 211.4 339.604 211.155C339.745 210.91 339.938 210.719 340.183 210.582C340.428 210.446 340.703 210.378 341.008 210.378C341.314 210.378 341.589 210.446 341.834 210.582C342.079 210.719 342.27 210.91 342.407 211.155C342.547 211.4 342.617 211.677 342.617 211.987C342.617 212.296 342.547 212.573 342.407 212.818C342.27 213.064 342.079 213.256 341.834 213.397C341.589 213.534 341.314 213.602 341.008 213.602ZM341.008 213.222C341.233 213.222 341.434 213.172 341.611 213.072C341.792 212.967 341.932 212.82 342.033 212.632C342.133 212.443 342.184 212.228 342.184 211.987C342.184 211.746 342.133 211.531 342.033 211.342C341.932 211.153 341.792 211.008 341.611 210.908C341.434 210.803 341.233 210.751 341.008 210.751C340.783 210.751 340.58 210.803 340.4 210.908C340.223 211.008 340.082 211.153 339.978 211.342C339.877 211.531 339.827 211.746 339.827 211.987C339.827 212.228 339.877 212.443 339.978 212.632C340.082 212.82 340.223 212.967 340.4 213.072C340.58 213.172 340.783 213.222 341.008 213.222ZM346.348 210.402V213.572H345.938V212.993C345.825 213.186 345.671 213.337 345.474 213.445C345.277 213.55 345.052 213.602 344.799 213.602C344.385 213.602 344.058 213.487 343.816 213.258C343.579 213.025 343.461 212.686 343.461 212.24V210.402H343.889V212.198C343.889 212.531 343.971 212.784 344.136 212.957C344.301 213.13 344.536 213.216 344.841 213.216C345.175 213.216 345.438 213.116 345.631 212.915C345.823 212.71 345.92 212.427 345.92 212.065V210.402H346.348ZM349.161 210.378C349.559 210.378 349.875 210.494 350.108 210.727C350.345 210.956 350.463 211.292 350.463 211.734V213.572H350.035V211.776C350.035 211.446 349.953 211.195 349.788 211.022C349.623 210.85 349.388 210.763 349.083 210.763C348.742 210.763 348.47 210.866 348.269 211.071C348.073 211.272 347.974 211.551 347.974 211.908V213.572H347.546V210.402H347.956V210.986C348.073 210.793 348.233 210.645 348.438 210.54C348.647 210.432 348.888 210.378 349.161 210.378ZM353.294 213.379C353.214 213.451 353.113 213.507 352.993 213.548C352.876 213.584 352.754 213.602 352.625 213.602C352.328 213.602 352.099 213.522 351.938 213.361C351.778 213.2 351.697 212.973 351.697 212.68V210.763H351.131V210.402H351.697V209.709H352.125V210.402H353.089V210.763H352.125V212.656C352.125 212.845 352.171 212.989 352.264 213.09C352.36 213.186 352.497 213.234 352.674 213.234C352.762 213.234 352.846 213.22 352.927 213.192C353.011 213.164 353.083 213.124 353.144 213.072L353.294 213.379Z" fill="#37366A"/>
<path d="M379.836 498.282H296.881C296.023 498.282 295.324 497.556 295.324 496.666V479.826C295.324 478.935 296.023 478.209 296.881 478.209H379.836C380.694 478.209 381.393 478.935 381.393 479.826V496.666C381.393 497.556 380.694 498.282 379.836 498.282Z" fill="#4271E9"/>
<path d="M326.167 487.023L325.448 486.013C325.367 486.022 325.284 486.027 325.197 486.027H324.353V487.023H324.021V483.881H325.197C325.598 483.881 325.912 483.976 326.14 484.168C326.367 484.36 326.481 484.623 326.481 484.958C326.481 485.204 326.418 485.412 326.292 485.582C326.17 485.75 325.993 485.871 325.762 485.946L326.53 487.023H326.167ZM325.188 485.744C325.499 485.744 325.737 485.675 325.902 485.537C326.066 485.4 326.149 485.207 326.149 484.958C326.149 484.704 326.066 484.509 325.902 484.375C325.737 484.237 325.499 484.168 325.188 484.168H324.353V485.744H325.188ZM329.254 485.941H327.278C327.296 486.187 327.391 486.386 327.561 486.538C327.732 486.688 327.947 486.763 328.208 486.763C328.354 486.763 328.489 486.737 328.612 486.686C328.734 486.633 328.841 486.555 328.93 486.453L329.11 486.66C329.005 486.785 328.874 486.881 328.715 486.947C328.559 487.013 328.387 487.046 328.199 487.046C327.956 487.046 327.741 486.995 327.552 486.893C327.367 486.788 327.221 486.645 327.117 486.462C327.012 486.279 326.96 486.073 326.96 485.843C326.96 485.612 327.009 485.406 327.108 485.223C327.209 485.04 327.347 484.898 327.521 484.797C327.697 484.695 327.895 484.644 328.113 484.644C328.332 484.644 328.528 484.695 328.701 484.797C328.875 484.898 329.011 485.04 329.11 485.223C329.209 485.403 329.258 485.609 329.258 485.843L329.254 485.941ZM328.113 484.918C327.886 484.918 327.694 484.991 327.539 485.138C327.386 485.281 327.299 485.47 327.278 485.703H328.953C328.932 485.47 328.844 485.281 328.688 485.138C328.535 484.991 328.344 484.918 328.113 484.918ZM332.093 484.662V486.736C332.093 487.137 331.994 487.433 331.797 487.625C331.602 487.819 331.308 487.917 330.912 487.917C330.694 487.917 330.486 487.884 330.288 487.818C330.094 487.755 329.935 487.667 329.813 487.553L329.974 487.311C330.088 487.412 330.226 487.492 330.387 487.548C330.552 487.605 330.724 487.634 330.903 487.634C331.203 487.634 331.423 487.563 331.563 487.423C331.704 487.285 331.774 487.07 331.774 486.776V486.475C331.676 486.625 331.545 486.739 331.384 486.817C331.225 486.895 331.049 486.933 330.854 486.933C330.633 486.933 330.431 486.886 330.248 486.79C330.068 486.691 329.926 486.555 329.822 486.381C329.72 486.205 329.669 486.006 329.669 485.784C329.669 485.563 329.72 485.365 329.822 485.192C329.926 485.018 330.068 484.883 330.248 484.788C330.428 484.692 330.63 484.644 330.854 484.644C331.055 484.644 331.236 484.684 331.397 484.765C331.559 484.846 331.689 484.963 331.788 485.115V484.662H332.093ZM330.886 486.651C331.056 486.651 331.21 486.615 331.348 486.543C331.486 486.468 331.592 486.365 331.667 486.233C331.744 486.101 331.783 485.952 331.783 485.784C331.783 485.617 331.744 485.468 331.667 485.34C331.592 485.208 331.486 485.106 331.348 485.034C331.213 484.96 331.059 484.922 330.886 484.922C330.715 484.922 330.561 484.958 330.423 485.03C330.288 485.102 330.182 485.204 330.104 485.335C330.03 485.467 329.992 485.617 329.992 485.784C329.992 485.952 330.03 486.101 330.104 486.233C330.182 486.365 330.288 486.468 330.423 486.543C330.561 486.615 330.715 486.651 330.886 486.651ZM332.984 484.662H333.303V487.023H332.984V484.662ZM333.146 484.146C333.08 484.146 333.025 484.123 332.98 484.078C332.935 484.033 332.913 483.979 332.913 483.917C332.913 483.857 332.935 483.804 332.98 483.759C333.025 483.715 333.08 483.692 333.146 483.692C333.212 483.692 333.267 483.715 333.312 483.759C333.357 483.801 333.38 483.852 333.38 483.912C333.38 483.978 333.357 484.033 333.312 484.078C333.267 484.123 333.212 484.146 333.146 484.146ZM334.823 487.046C334.632 487.046 334.448 487.019 334.271 486.965C334.097 486.908 333.961 486.838 333.862 486.754L334.006 486.502C334.105 486.58 334.229 486.645 334.379 486.695C334.528 486.743 334.684 486.767 334.846 486.767C335.061 486.767 335.22 486.734 335.321 486.669C335.426 486.6 335.479 486.504 335.479 486.381C335.479 486.294 335.45 486.227 335.393 486.179C335.336 486.128 335.265 486.091 335.178 486.067C335.091 486.04 334.976 486.015 334.832 485.991C334.641 485.955 334.486 485.919 334.37 485.883C334.253 485.844 334.153 485.78 334.069 485.69C333.988 485.6 333.948 485.476 333.948 485.317C333.948 485.12 334.03 484.958 334.195 484.832C334.359 484.707 334.588 484.644 334.881 484.644C335.034 484.644 335.187 484.665 335.339 484.707C335.492 484.746 335.618 484.798 335.716 484.864L335.577 485.12C335.383 484.985 335.151 484.918 334.881 484.918C334.678 484.918 334.524 484.954 334.419 485.025C334.317 485.097 334.266 485.192 334.266 485.308C334.266 485.398 334.295 485.47 334.352 485.524C334.412 485.578 334.485 485.618 334.572 485.645C334.659 485.669 334.778 485.694 334.931 485.721C335.119 485.757 335.271 485.793 335.384 485.829C335.498 485.865 335.595 485.926 335.676 486.013C335.757 486.1 335.797 486.22 335.797 486.372C335.797 486.579 335.71 486.743 335.537 486.866C335.366 486.986 335.128 487.046 334.823 487.046ZM337.63 486.88C337.57 486.933 337.495 486.975 337.406 487.005C337.319 487.032 337.228 487.046 337.132 487.046C336.91 487.046 336.74 486.986 336.62 486.866C336.5 486.746 336.44 486.577 336.44 486.359V484.931H336.018V484.662H336.44V484.146H336.759V484.662H337.477V484.931H336.759V486.341C336.759 486.481 336.794 486.589 336.862 486.664C336.934 486.736 337.036 486.772 337.168 486.772C337.234 486.772 337.296 486.761 337.356 486.74C337.419 486.719 337.473 486.689 337.518 486.651L337.63 486.88ZM340.183 485.941H338.208C338.226 486.187 338.32 486.386 338.491 486.538C338.661 486.688 338.877 486.763 339.137 486.763C339.284 486.763 339.418 486.737 339.541 486.686C339.664 486.633 339.77 486.555 339.86 486.453L340.039 486.66C339.935 486.785 339.803 486.881 339.644 486.947C339.489 487.013 339.317 487.046 339.128 487.046C338.886 487.046 338.67 486.995 338.482 486.893C338.296 486.788 338.151 486.645 338.046 486.462C337.941 486.279 337.889 486.073 337.889 485.843C337.889 485.612 337.938 485.406 338.037 485.223C338.139 485.04 338.277 484.898 338.45 484.797C338.627 484.695 338.824 484.644 339.043 484.644C339.261 484.644 339.457 484.695 339.631 484.797C339.805 484.898 339.941 485.04 340.039 485.223C340.138 485.403 340.188 485.609 340.188 485.843L340.183 485.941ZM339.043 484.918C338.815 484.918 338.624 484.991 338.468 485.138C338.316 485.281 338.229 485.47 338.208 485.703H339.882C339.861 485.47 339.773 485.281 339.617 485.138C339.465 484.991 339.273 484.918 339.043 484.918ZM341.142 485.124C341.216 484.966 341.327 484.846 341.474 484.765C341.624 484.684 341.808 484.644 342.026 484.644V484.954L341.95 484.949C341.701 484.949 341.507 485.025 341.366 485.178C341.225 485.331 341.155 485.545 341.155 485.82V487.023H340.836V484.662H341.142V485.124Z" fill="#F3F4E9"/>
<g opacity="0.57">
<path opacity="0.57" d="M267.66 241.443V241.705H265.63V238.834H267.598V239.097H265.933V240.118H267.418V240.376H265.933V241.443H267.66ZM271.002 239.531C271.273 239.531 271.485 239.609 271.638 239.765C271.794 239.921 271.872 240.151 271.872 240.454V241.705H271.581V240.483C271.581 240.259 271.526 240.088 271.417 239.97C271.31 239.853 271.158 239.794 270.961 239.794C270.737 239.794 270.561 239.864 270.432 240.003C270.304 240.14 270.24 240.33 270.24 240.573V241.705H269.948V240.483C269.948 240.259 269.894 240.088 269.784 239.97C269.678 239.853 269.525 239.794 269.325 239.794C269.103 239.794 268.927 239.864 268.796 240.003C268.667 240.14 268.603 240.33 268.603 240.573V241.705H268.312V239.548H268.591V239.941C268.667 239.81 268.774 239.709 268.911 239.638C269.047 239.567 269.205 239.531 269.382 239.531C269.563 239.531 269.719 239.57 269.85 239.646C269.984 239.723 270.084 239.836 270.149 239.987C270.229 239.844 270.342 239.734 270.49 239.654C270.64 239.572 270.811 239.531 271.002 239.531ZM273.416 239.531C273.698 239.531 273.914 239.602 274.064 239.745C274.215 239.884 274.29 240.092 274.29 240.368V241.705H274.011V241.369C273.945 241.481 273.848 241.568 273.72 241.631C273.594 241.694 273.444 241.726 273.269 241.726C273.028 241.726 272.837 241.668 272.694 241.553C272.552 241.438 272.481 241.287 272.481 241.098C272.481 240.915 272.547 240.767 272.678 240.655C272.812 240.543 273.024 240.487 273.314 240.487H273.999V240.356C273.999 240.17 273.947 240.029 273.843 239.933C273.739 239.835 273.587 239.786 273.388 239.786C273.251 239.786 273.12 239.809 272.994 239.855C272.868 239.899 272.76 239.961 272.67 240.04L272.539 239.822C272.648 239.73 272.779 239.658 272.932 239.609C273.085 239.557 273.247 239.531 273.416 239.531ZM273.314 241.496C273.478 241.496 273.619 241.459 273.736 241.385C273.854 241.309 273.941 241.199 273.999 241.057V240.704H273.322C272.953 240.704 272.768 240.833 272.768 241.09C272.768 241.216 272.816 241.315 272.912 241.389C273.008 241.46 273.142 241.496 273.314 241.496ZM275.081 239.548H275.372V241.705H275.081V239.548ZM275.229 239.076C275.168 239.076 275.118 239.056 275.077 239.014C275.036 238.973 275.015 238.924 275.015 238.867C275.015 238.812 275.036 238.764 275.077 238.723C275.118 238.682 275.168 238.662 275.229 238.662C275.289 238.662 275.339 238.682 275.38 238.723C275.421 238.762 275.442 238.808 275.442 238.863C275.442 238.923 275.421 238.973 275.38 239.014C275.339 239.056 275.289 239.076 275.229 239.076ZM276.182 238.662H276.474V241.705H276.182V238.662ZM280.219 240.938H278.62L278.275 241.705H277.959L279.272 238.834H279.571L280.884 241.705H280.564L280.219 240.938ZM280.109 240.692L279.42 239.15L278.731 240.692H280.109ZM283.246 238.662V241.705H282.967V241.279C282.88 241.423 282.763 241.534 282.618 241.611C282.476 241.687 282.315 241.726 282.134 241.726C281.932 241.726 281.749 241.679 281.585 241.586C281.421 241.493 281.292 241.363 281.199 241.196C281.106 241.03 281.06 240.84 281.06 240.626C281.06 240.413 281.106 240.223 281.199 240.056C281.292 239.889 281.421 239.761 281.585 239.671C281.749 239.578 281.932 239.531 282.134 239.531C282.309 239.531 282.467 239.568 282.606 239.642C282.748 239.713 282.865 239.818 282.955 239.958V238.662H283.246ZM282.159 241.467C282.309 241.467 282.445 241.433 282.565 241.365C282.688 241.294 282.784 241.194 282.852 241.065C282.923 240.937 282.959 240.79 282.959 240.626C282.959 240.462 282.923 240.316 282.852 240.188C282.784 240.059 282.688 239.961 282.565 239.892C282.445 239.821 282.309 239.786 282.159 239.786C282.006 239.786 281.868 239.821 281.745 239.892C281.624 239.961 281.529 240.059 281.458 240.188C281.389 240.316 281.355 240.462 281.355 240.626C281.355 240.79 281.389 240.937 281.458 241.065C281.529 241.194 281.624 241.294 281.745 241.365C281.868 241.433 282.006 241.467 282.159 241.467ZM286.026 238.662V241.705H285.747V241.279C285.659 241.423 285.543 241.534 285.398 241.611C285.256 241.687 285.095 241.726 284.914 241.726C284.712 241.726 284.529 241.679 284.365 241.586C284.201 241.493 284.072 241.363 283.979 241.196C283.886 241.03 283.84 240.84 283.84 240.626C283.84 240.413 283.886 240.223 283.979 240.056C284.072 239.889 284.201 239.761 284.365 239.671C284.529 239.578 284.712 239.531 284.914 239.531C285.089 239.531 285.246 239.568 285.386 239.642C285.528 239.713 285.644 239.818 285.734 239.958V238.662H286.026ZM284.939 241.467C285.089 241.467 285.225 241.433 285.345 241.365C285.468 241.294 285.564 241.194 285.632 241.065C285.703 240.937 285.739 240.79 285.739 240.626C285.739 240.462 285.703 240.316 285.632 240.188C285.564 240.059 285.468 239.961 285.345 239.892C285.225 239.821 285.089 239.786 284.939 239.786C284.786 239.786 284.648 239.821 284.525 239.892C284.404 239.961 284.309 240.059 284.237 240.188C284.169 240.316 284.135 240.462 284.135 240.626C284.135 240.79 284.169 240.937 284.237 241.065C284.309 241.194 284.404 241.294 284.525 241.365C284.648 241.433 284.786 241.467 284.939 241.467ZM287.116 239.97C287.184 239.825 287.285 239.716 287.419 239.642C287.556 239.568 287.724 239.531 287.924 239.531V239.814L287.854 239.81C287.627 239.81 287.449 239.88 287.321 240.019C287.192 240.159 287.128 240.354 287.128 240.606V241.705H286.837V239.548H287.116V239.97ZM290.309 240.717H288.505C288.521 240.941 288.607 241.123 288.763 241.262C288.919 241.399 289.116 241.467 289.354 241.467C289.488 241.467 289.611 241.444 289.723 241.397C289.835 241.348 289.932 241.277 290.014 241.184L290.178 241.373C290.082 241.488 289.962 241.575 289.817 241.635C289.675 241.696 289.518 241.726 289.345 241.726C289.124 241.726 288.927 241.679 288.755 241.586C288.585 241.49 288.453 241.359 288.357 241.192C288.261 241.026 288.213 240.837 288.213 240.626C288.213 240.416 288.259 240.227 288.349 240.06C288.442 239.894 288.568 239.764 288.726 239.671C288.887 239.578 289.068 239.531 289.268 239.531C289.467 239.531 289.646 239.578 289.805 239.671C289.963 239.764 290.088 239.894 290.178 240.06C290.268 240.224 290.313 240.413 290.313 240.626L290.309 240.717ZM289.268 239.781C289.06 239.781 288.885 239.848 288.743 239.982C288.603 240.114 288.524 240.286 288.505 240.499H290.035C290.015 240.286 289.935 240.114 289.793 239.982C289.653 239.848 289.478 239.781 289.268 239.781ZM291.484 241.726C291.309 241.726 291.141 241.701 290.98 241.652C290.821 241.6 290.697 241.536 290.607 241.459L290.738 241.229C290.828 241.3 290.942 241.359 291.078 241.406C291.215 241.449 291.357 241.471 291.505 241.471C291.702 241.471 291.847 241.441 291.94 241.381C292.035 241.318 292.083 241.231 292.083 241.119C292.083 241.039 292.057 240.978 292.005 240.934C291.953 240.888 291.888 240.853 291.808 240.831C291.729 240.807 291.624 240.784 291.493 240.762C291.318 240.729 291.177 240.696 291.07 240.663C290.964 240.628 290.872 240.569 290.795 240.487C290.722 240.405 290.685 240.291 290.685 240.147C290.685 239.966 290.76 239.818 290.91 239.704C291.061 239.589 291.27 239.531 291.538 239.531C291.677 239.531 291.817 239.55 291.956 239.589C292.096 239.624 292.21 239.672 292.301 239.732L292.173 239.966C291.996 239.843 291.784 239.781 291.538 239.781C291.352 239.781 291.211 239.814 291.115 239.88C291.022 239.946 290.976 240.032 290.976 240.138C290.976 240.22 291.002 240.286 291.054 240.335C291.108 240.384 291.175 240.421 291.255 240.446C291.334 240.468 291.443 240.491 291.583 240.516C291.755 240.548 291.893 240.581 291.997 240.614C292.101 240.647 292.19 240.703 292.264 240.782C292.338 240.862 292.374 240.971 292.374 241.11C292.374 241.299 292.295 241.449 292.137 241.562C291.981 241.671 291.763 241.726 291.484 241.726ZM293.491 241.726C293.316 241.726 293.148 241.701 292.987 241.652C292.828 241.6 292.704 241.536 292.613 241.459L292.745 241.229C292.835 241.3 292.948 241.359 293.085 241.406C293.222 241.449 293.364 241.471 293.512 241.471C293.709 241.471 293.853 241.441 293.946 241.381C294.042 241.318 294.09 241.231 294.09 241.119C294.09 241.039 294.064 240.978 294.012 240.934C293.96 240.888 293.894 240.853 293.815 240.831C293.736 240.807 293.631 240.784 293.499 240.762C293.324 240.729 293.184 240.696 293.077 240.663C292.97 240.628 292.879 240.569 292.802 240.487C292.728 240.405 292.691 240.291 292.691 240.147C292.691 239.966 292.767 239.818 292.917 239.704C293.067 239.589 293.276 239.531 293.544 239.531C293.684 239.531 293.823 239.55 293.963 239.589C294.102 239.624 294.217 239.672 294.307 239.732L294.18 239.966C294.002 239.843 293.791 239.781 293.544 239.781C293.359 239.781 293.218 239.814 293.122 239.88C293.029 239.946 292.983 240.032 292.983 240.138C292.983 240.22 293.009 240.286 293.06 240.335C293.115 240.384 293.182 240.421 293.261 240.446C293.341 240.468 293.45 240.491 293.59 240.516C293.762 240.548 293.9 240.581 294.004 240.614C294.108 240.647 294.197 240.703 294.27 240.782C294.344 240.862 294.381 240.971 294.381 241.11C294.381 241.299 294.302 241.449 294.143 241.562C293.987 241.671 293.77 241.726 293.491 241.726Z" fill="#37366A"/>
</g>
<path d="M274.707 261.628L273.628 264.044C273.541 264.246 273.44 264.389 273.325 264.474C273.21 264.559 273.072 264.601 272.911 264.601C272.807 264.601 272.71 264.585 272.619 264.552C272.529 264.519 272.451 264.47 272.386 264.404L272.521 264.187C272.63 264.296 272.761 264.351 272.915 264.351C273.013 264.351 273.096 264.324 273.165 264.269C273.236 264.214 273.302 264.121 273.362 263.99L273.456 263.781L272.492 261.628H272.796L273.608 263.461L274.42 261.628H274.707ZM275.939 263.806C275.731 263.806 275.544 263.759 275.377 263.666C275.21 263.571 275.079 263.439 274.983 263.272C274.887 263.106 274.84 262.917 274.84 262.706C274.84 262.496 274.887 262.307 274.983 262.14C275.079 261.974 275.21 261.844 275.377 261.751C275.544 261.658 275.731 261.611 275.939 261.611C276.147 261.611 276.334 261.658 276.501 261.751C276.668 261.844 276.797 261.974 276.89 262.14C276.986 262.307 277.034 262.496 277.034 262.706C277.034 262.917 276.986 263.106 276.89 263.272C276.797 263.439 276.668 263.571 276.501 263.666C276.334 263.759 276.147 263.806 275.939 263.806ZM275.939 263.547C276.092 263.547 276.229 263.513 276.349 263.445C276.472 263.374 276.568 263.274 276.636 263.145C276.704 263.017 276.739 262.871 276.739 262.706C276.739 262.542 276.704 262.396 276.636 262.268C276.568 262.139 276.472 262.041 276.349 261.972C276.229 261.901 276.092 261.866 275.939 261.866C275.786 261.866 275.648 261.901 275.525 261.972C275.404 262.041 275.309 262.139 275.237 262.268C275.169 262.396 275.135 262.542 275.135 262.706C275.135 262.871 275.169 263.017 275.237 263.145C275.309 263.274 275.404 263.374 275.525 263.445C275.648 263.513 275.786 263.547 275.939 263.547ZM279.573 261.628V263.785H279.294V263.391C279.217 263.523 279.112 263.625 278.978 263.699C278.844 263.77 278.691 263.806 278.518 263.806C278.237 263.806 278.014 263.728 277.85 263.572C277.689 263.413 277.608 263.182 277.608 262.879V261.628H277.899V262.85C277.899 263.077 277.955 263.249 278.067 263.367C278.179 263.484 278.339 263.543 278.547 263.543C278.774 263.543 278.953 263.475 279.084 263.338C279.216 263.199 279.281 263.006 279.281 262.76V261.628H279.573ZM280.667 262.05C280.735 261.905 280.837 261.796 280.971 261.722C281.107 261.648 281.275 261.611 281.475 261.611V261.894L281.405 261.89C281.178 261.89 281.001 261.96 280.872 262.099C280.744 262.239 280.679 262.434 280.679 262.686V263.785H280.388V261.628H280.667V262.05ZM283.861 262.797H282.056C282.073 263.021 282.159 263.203 282.315 263.342C282.47 263.479 282.667 263.547 282.905 263.547C283.039 263.547 283.162 263.524 283.274 263.478C283.386 263.428 283.483 263.357 283.565 263.264L283.73 263.453C283.634 263.568 283.514 263.655 283.369 263.715C283.226 263.776 283.069 263.806 282.897 263.806C282.675 263.806 282.479 263.759 282.306 263.666C282.137 263.571 282.004 263.439 281.908 263.272C281.813 263.106 281.765 262.917 281.765 262.706C281.765 262.496 281.81 262.307 281.9 262.14C281.993 261.974 282.119 261.844 282.278 261.751C282.439 261.658 282.619 261.611 282.819 261.611C283.019 261.611 283.198 261.658 283.356 261.751C283.515 261.844 283.639 261.974 283.73 262.14C283.82 262.305 283.865 262.493 283.865 262.706L283.861 262.797ZM282.819 261.862C282.611 261.862 282.436 261.929 282.294 262.063C282.155 262.194 282.075 262.366 282.056 262.579H283.586C283.567 262.366 283.486 262.194 283.344 262.063C283.205 261.929 283.03 261.862 282.819 261.862ZM287.148 261.611C287.419 261.611 287.631 261.689 287.784 261.845C287.94 262.001 288.018 262.231 288.018 262.534V263.785H287.727V262.563C287.727 262.339 287.672 262.168 287.562 262.05C287.456 261.933 287.304 261.874 287.107 261.874C286.883 261.874 286.707 261.944 286.578 262.083C286.45 262.22 286.385 262.41 286.385 262.653V263.785H286.094V262.563C286.094 262.339 286.039 262.168 285.93 262.05C285.823 261.933 285.67 261.874 285.471 261.874C285.249 261.874 285.073 261.944 284.942 262.083C284.813 262.22 284.749 262.41 284.749 262.653V263.785H284.458V261.628H284.737V262.022C284.813 261.89 284.92 261.789 285.056 261.718C285.193 261.647 285.35 261.611 285.528 261.611C285.709 261.611 285.864 261.65 285.996 261.726C286.13 261.803 286.229 261.916 286.295 262.067C286.374 261.924 286.488 261.814 286.636 261.734C286.786 261.652 286.957 261.611 287.148 261.611ZM289.562 261.611C289.844 261.611 290.06 261.682 290.21 261.825C290.361 261.964 290.436 262.172 290.436 262.448V263.785H290.157V263.449C290.091 263.561 289.994 263.648 289.866 263.711C289.74 263.774 289.589 263.806 289.414 263.806C289.174 263.806 288.982 263.748 288.84 263.633C288.698 263.519 288.627 263.367 288.627 263.178C288.627 262.995 288.693 262.847 288.824 262.735C288.958 262.623 289.17 262.567 289.46 262.567H290.145V262.436C290.145 262.25 290.093 262.109 289.989 262.013C289.885 261.915 289.733 261.866 289.533 261.866C289.397 261.866 289.265 261.889 289.14 261.935C289.014 261.979 288.906 262.041 288.816 262.12L288.684 261.903C288.794 261.81 288.925 261.739 289.078 261.689C289.231 261.637 289.393 261.611 289.562 261.611ZM289.46 263.576C289.624 263.576 289.764 263.539 289.882 263.465C290 263.389 290.087 263.279 290.145 263.137V262.784H289.468C289.099 262.784 288.914 262.913 288.914 263.17C288.914 263.296 288.962 263.396 289.058 263.469C289.153 263.54 289.287 263.576 289.46 263.576ZM291.227 261.628H291.518V263.785H291.227V261.628ZM291.374 261.156C291.314 261.156 291.264 261.136 291.223 261.095C291.182 261.054 291.161 261.004 291.161 260.947C291.161 260.892 291.182 260.844 291.223 260.803C291.264 260.762 291.314 260.742 291.374 260.742C291.434 260.742 291.485 260.762 291.526 260.803C291.567 260.842 291.588 260.888 291.588 260.943C291.588 261.003 291.567 261.054 291.526 261.095C291.485 261.136 291.434 261.156 291.374 261.156ZM292.328 260.742H292.619V263.785H292.328V260.742ZM295.152 260.889C295.519 260.889 295.845 260.966 296.133 261.119C296.422 261.27 296.648 261.483 296.809 261.759C296.971 262.032 297.051 262.346 297.051 262.698C297.051 263.046 296.991 263.318 296.871 263.514C296.75 263.709 296.584 263.806 296.37 263.806C296.236 263.806 296.127 263.766 296.042 263.687C295.96 263.607 295.915 263.498 295.907 263.359C295.825 263.501 295.713 263.612 295.571 263.691C295.428 263.767 295.267 263.806 295.087 263.806C294.895 263.806 294.722 263.761 294.566 263.67C294.413 263.577 294.291 263.45 294.201 263.289C294.113 263.128 294.069 262.946 294.069 262.743C294.069 262.541 294.113 262.361 294.201 262.202C294.291 262.041 294.413 261.915 294.566 261.825C294.722 261.734 294.895 261.689 295.087 261.689C295.262 261.689 295.419 261.728 295.558 261.804C295.701 261.878 295.814 261.983 295.899 262.12V261.706H296.165V263.26C296.165 263.37 296.189 263.449 296.235 263.498C296.282 263.547 296.343 263.572 296.42 263.572C296.548 263.572 296.649 263.495 296.723 263.342C296.8 263.189 296.838 262.976 296.838 262.702C296.838 262.385 296.767 262.106 296.625 261.866C296.483 261.622 296.283 261.434 296.026 261.3C295.772 261.166 295.48 261.099 295.152 261.099C294.821 261.099 294.527 261.168 294.27 261.308C294.016 261.445 293.818 261.639 293.676 261.89C293.534 262.139 293.462 262.423 293.462 262.743C293.462 263.063 293.532 263.349 293.672 263.601C293.814 263.852 294.011 264.048 294.262 264.187C294.517 264.327 294.808 264.396 295.136 264.396C295.264 264.396 295.398 264.381 295.538 264.351C295.68 264.321 295.809 264.276 295.923 264.216L295.993 264.417C295.875 264.477 295.739 264.523 295.583 264.556C295.43 264.589 295.281 264.605 295.136 264.605C294.764 264.605 294.435 264.526 294.147 264.368C293.86 264.209 293.636 263.989 293.475 263.707C293.316 263.423 293.237 263.102 293.237 262.743C293.237 262.382 293.318 262.063 293.479 261.784C293.64 261.502 293.866 261.283 294.156 261.127C294.448 260.969 294.78 260.889 295.152 260.889ZM295.124 263.568C295.271 263.568 295.404 263.534 295.521 263.465C295.639 263.397 295.732 263.301 295.8 263.178C295.869 263.052 295.903 262.907 295.903 262.743C295.903 262.582 295.869 262.44 295.8 262.317C295.732 262.191 295.639 262.095 295.521 262.03C295.404 261.961 295.271 261.927 295.124 261.927C294.973 261.927 294.838 261.961 294.718 262.03C294.6 262.098 294.507 262.194 294.439 262.317C294.373 262.44 294.34 262.582 294.34 262.743C294.34 262.905 294.373 263.048 294.439 263.174C294.507 263.297 294.6 263.394 294.718 263.465C294.838 263.534 294.973 263.568 295.124 263.568ZM299.665 261.628V263.523C299.665 263.889 299.575 264.16 299.394 264.335C299.216 264.512 298.947 264.601 298.586 264.601C298.386 264.601 298.196 264.571 298.016 264.511C297.838 264.454 297.693 264.373 297.581 264.269L297.729 264.048C297.833 264.141 297.959 264.213 298.106 264.265C298.257 264.317 298.414 264.343 298.578 264.343C298.851 264.343 299.052 264.279 299.181 264.15C299.309 264.024 299.374 263.828 299.374 263.56V263.285C299.283 263.421 299.164 263.525 299.017 263.596C298.872 263.668 298.71 263.703 298.533 263.703C298.33 263.703 298.146 263.659 297.979 263.572C297.815 263.482 297.685 263.357 297.589 263.199C297.496 263.037 297.45 262.855 297.45 262.653C297.45 262.451 297.496 262.27 297.589 262.112C297.685 261.953 297.815 261.83 297.979 261.743C298.143 261.655 298.328 261.611 298.533 261.611C298.716 261.611 298.881 261.648 299.029 261.722C299.177 261.796 299.296 261.903 299.386 262.042V261.628H299.665ZM298.561 263.445C298.717 263.445 298.858 263.412 298.984 263.346C299.11 263.278 299.207 263.184 299.275 263.063C299.346 262.943 299.382 262.806 299.382 262.653C299.382 262.5 299.346 262.365 299.275 262.247C299.207 262.127 299.11 262.034 298.984 261.968C298.861 261.9 298.72 261.866 298.561 261.866C298.406 261.866 298.265 261.898 298.139 261.964C298.016 262.03 297.919 262.123 297.848 262.243C297.779 262.363 297.745 262.5 297.745 262.653C297.745 262.806 297.779 262.943 297.848 263.063C297.919 263.184 298.016 263.278 298.139 263.346C298.265 263.412 298.406 263.445 298.561 263.445ZM303.17 261.611C303.44 261.611 303.652 261.689 303.805 261.845C303.961 262.001 304.039 262.231 304.039 262.534V263.785H303.748V262.563C303.748 262.339 303.693 262.168 303.584 262.05C303.477 261.933 303.326 261.874 303.129 261.874C302.904 261.874 302.728 261.944 302.6 262.083C302.471 262.22 302.407 262.41 302.407 262.653V263.785H302.116V262.563C302.116 262.339 302.061 262.168 301.952 262.05C301.845 261.933 301.692 261.874 301.492 261.874C301.271 261.874 301.094 261.944 300.963 262.083C300.835 262.22 300.77 262.41 300.77 262.653V263.785H300.479V261.628H300.758V262.022C300.835 261.89 300.941 261.789 301.078 261.718C301.215 261.647 301.372 261.611 301.55 261.611C301.73 261.611 301.886 261.65 302.017 261.726C302.151 261.803 302.251 261.916 302.317 262.067C302.396 261.924 302.509 261.814 302.657 261.734C302.807 261.652 302.978 261.611 303.17 261.611ZM305.584 261.611C305.865 261.611 306.081 261.682 306.232 261.825C306.382 261.964 306.457 262.172 306.457 262.448V263.785H306.178V263.449C306.113 263.561 306.016 263.648 305.887 263.711C305.761 263.774 305.611 263.806 305.436 263.806C305.195 263.806 305.004 263.748 304.862 263.633C304.72 263.519 304.648 263.367 304.648 263.178C304.648 262.995 304.714 262.847 304.845 262.735C304.979 262.623 305.191 262.567 305.481 262.567H306.166V262.436C306.166 262.25 306.114 262.109 306.01 262.013C305.906 261.915 305.754 261.866 305.555 261.866C305.418 261.866 305.287 261.889 305.161 261.935C305.035 261.979 304.927 262.041 304.837 262.12L304.706 261.903C304.815 261.81 304.947 261.739 305.1 261.689C305.253 261.637 305.414 261.611 305.584 261.611ZM305.481 263.576C305.645 263.576 305.786 263.539 305.904 263.465C306.021 263.389 306.109 263.279 306.166 263.137V262.784H305.489C305.12 262.784 304.936 262.913 304.936 263.17C304.936 263.296 304.983 263.396 305.079 263.469C305.175 263.54 305.309 263.576 305.481 263.576ZM307.248 261.628H307.539V263.785H307.248V261.628ZM307.396 261.156C307.336 261.156 307.285 261.136 307.244 261.095C307.203 261.054 307.183 261.004 307.183 260.947C307.183 260.892 307.203 260.844 307.244 260.803C307.285 260.762 307.336 260.742 307.396 260.742C307.456 260.742 307.507 260.762 307.548 260.803C307.589 260.842 307.609 260.888 307.609 260.943C307.609 261.003 307.589 261.054 307.548 261.095C307.507 261.136 307.456 261.156 307.396 261.156ZM308.35 260.742H308.641V263.785H308.35V260.742ZM309.48 263.806C309.42 263.806 309.368 263.784 309.324 263.74C309.283 263.696 309.262 263.643 309.262 263.58C309.262 263.517 309.283 263.465 309.324 263.424C309.368 263.38 309.42 263.359 309.48 263.359C309.54 263.359 309.592 263.38 309.636 263.424C309.679 263.465 309.701 263.517 309.701 263.58C309.701 263.643 309.679 263.696 309.636 263.74C309.592 263.784 309.54 263.806 309.48 263.806ZM311.154 263.806C310.941 263.806 310.75 263.759 310.58 263.666C310.413 263.573 310.282 263.443 310.186 263.277C310.091 263.107 310.043 262.917 310.043 262.706C310.043 262.496 310.091 262.307 310.186 262.14C310.282 261.974 310.413 261.844 310.58 261.751C310.75 261.658 310.941 261.611 311.154 261.611C311.34 261.611 311.506 261.648 311.651 261.722C311.798 261.793 311.914 261.898 311.999 262.038L311.782 262.186C311.711 262.079 311.621 262 311.511 261.948C311.402 261.893 311.283 261.866 311.154 261.866C310.998 261.866 310.858 261.901 310.732 261.972C310.609 262.041 310.512 262.139 310.441 262.268C310.372 262.396 310.338 262.542 310.338 262.706C310.338 262.873 310.372 263.021 310.441 263.149C310.512 263.275 310.609 263.374 310.732 263.445C310.858 263.513 310.998 263.547 311.154 263.547C311.283 263.547 311.402 263.521 311.511 263.469C311.621 263.417 311.711 263.338 311.782 263.231L311.999 263.379C311.914 263.519 311.798 263.625 311.651 263.699C311.503 263.77 311.338 263.806 311.154 263.806Z" fill="#37366A"/>
<path d="M418.207 276.447H269.536C267.121 276.447 265.151 274.401 265.151 271.894V256.374C265.151 253.867 267.121 251.822 269.536 251.822H418.207C420.622 251.822 422.593 253.867 422.593 256.374V271.894C422.593 274.418 420.638 276.447 418.207 276.447Z" stroke="#37366A" stroke-width="0.5" stroke-miterlimit="10"/>
<g opacity="0.52">
<path opacity="0.52" d="M266.877 296.54C266.592 296.54 266.335 296.478 266.105 296.352C265.879 296.226 265.699 296.052 265.568 295.831C265.44 295.607 265.375 295.357 265.375 295.08C265.375 294.804 265.44 294.555 265.568 294.334C265.699 294.11 265.88 293.935 266.11 293.809C266.339 293.683 266.596 293.62 266.881 293.62C267.094 293.62 267.291 293.656 267.471 293.727C267.652 293.798 267.805 293.902 267.931 294.039L267.738 294.231C267.514 294.004 267.231 293.891 266.889 293.891C266.662 293.891 266.455 293.943 266.27 294.047C266.084 294.151 265.937 294.293 265.831 294.473C265.727 294.654 265.675 294.856 265.675 295.08C265.675 295.305 265.727 295.507 265.831 295.687C265.937 295.868 266.084 296.01 266.27 296.114C266.455 296.218 266.662 296.27 266.889 296.27C267.233 296.27 267.516 296.155 267.738 295.925L267.931 296.118C267.805 296.255 267.65 296.36 267.467 296.434C267.287 296.505 267.09 296.54 266.877 296.54ZM269.302 296.536C269.094 296.536 268.907 296.49 268.74 296.397C268.573 296.301 268.442 296.17 268.346 296.003C268.25 295.836 268.203 295.648 268.203 295.437C268.203 295.227 268.25 295.038 268.346 294.871C268.442 294.704 268.573 294.574 268.74 294.482C268.907 294.389 269.094 294.342 269.302 294.342C269.51 294.342 269.697 294.389 269.864 294.482C270.031 294.574 270.16 294.704 270.253 294.871C270.349 295.038 270.397 295.227 270.397 295.437C270.397 295.648 270.349 295.836 270.253 296.003C270.16 296.17 270.031 296.301 269.864 296.397C269.697 296.49 269.51 296.536 269.302 296.536ZM269.302 296.278C269.455 296.278 269.592 296.244 269.712 296.175C269.835 296.104 269.931 296.005 269.999 295.876C270.067 295.748 270.102 295.601 270.102 295.437C270.102 295.273 270.067 295.127 269.999 294.998C269.931 294.87 269.835 294.771 269.712 294.703C269.592 294.632 269.455 294.596 269.302 294.596C269.149 294.596 269.011 294.632 268.888 294.703C268.767 294.771 268.672 294.87 268.6 294.998C268.532 295.127 268.498 295.273 268.498 295.437C268.498 295.601 268.532 295.748 268.6 295.876C268.672 296.005 268.767 296.104 268.888 296.175C269.011 296.244 269.149 296.278 269.302 296.278ZM272.936 294.358V296.516H272.657V296.122C272.58 296.253 272.475 296.356 272.341 296.43C272.207 296.501 272.054 296.536 271.881 296.536C271.6 296.536 271.377 296.458 271.213 296.303C271.052 296.144 270.971 295.913 270.971 295.609V294.358H271.262V295.581C271.262 295.808 271.318 295.98 271.43 296.098C271.542 296.215 271.702 296.274 271.91 296.274C272.137 296.274 272.316 296.206 272.447 296.069C272.579 295.929 272.644 295.737 272.644 295.49V294.358H272.936ZM274.85 294.342C275.121 294.342 275.336 294.421 275.494 294.58C275.656 294.736 275.736 294.964 275.736 295.265V296.516H275.445V295.294C275.445 295.069 275.389 294.899 275.277 294.781C275.165 294.663 275.005 294.605 274.797 294.605C274.565 294.605 274.38 294.674 274.243 294.814C274.109 294.95 274.042 295.14 274.042 295.384V296.516H273.751V294.358H274.03V294.756C274.109 294.625 274.219 294.524 274.358 294.453C274.5 294.379 274.664 294.342 274.85 294.342ZM277.663 296.385C277.608 296.434 277.54 296.472 277.458 296.499C277.379 296.524 277.295 296.536 277.208 296.536C277.005 296.536 276.85 296.482 276.74 296.372C276.631 296.263 276.576 296.108 276.576 295.909V294.605H276.191V294.358H276.576V293.887H276.867V294.358H277.524V294.605H276.867V295.892C276.867 296.021 276.899 296.119 276.962 296.188C277.027 296.253 277.12 296.286 277.241 296.286C277.301 296.286 277.358 296.277 277.413 296.257C277.47 296.238 277.519 296.211 277.56 296.175L277.663 296.385ZM278.472 294.781C278.54 294.636 278.642 294.527 278.776 294.453C278.912 294.379 279.08 294.342 279.28 294.342V294.625L279.21 294.621C278.983 294.621 278.806 294.691 278.677 294.83C278.549 294.97 278.484 295.165 278.484 295.417V296.516H278.193V294.358H278.472V294.781ZM281.712 294.358L280.634 296.774C280.546 296.977 280.445 297.12 280.33 297.205C280.215 297.29 280.077 297.332 279.916 297.332C279.812 297.332 279.715 297.316 279.625 297.283C279.534 297.25 279.456 297.201 279.391 297.135L279.526 296.918C279.636 297.027 279.767 297.082 279.92 297.082C280.018 297.082 280.102 297.055 280.17 297C280.241 296.945 280.307 296.852 280.367 296.721L280.461 296.512L279.497 294.358H279.801L280.613 296.192L281.425 294.358H281.712Z" fill="#37366A"/>
</g>
<path d="M273.94 317.39V318.382H273.641V317.39L272.492 315.511H272.816L273.801 317.123L274.785 315.511H275.088L273.94 317.39ZM276.135 318.403C275.927 318.403 275.74 318.356 275.573 318.263C275.406 318.168 275.275 318.036 275.179 317.87C275.084 317.703 275.036 317.514 275.036 317.304C275.036 317.093 275.084 316.904 275.179 316.738C275.275 316.571 275.406 316.441 275.573 316.348C275.74 316.255 275.927 316.209 276.135 316.209C276.343 316.209 276.53 316.255 276.697 316.348C276.864 316.441 276.994 316.571 277.087 316.738C277.182 316.904 277.23 317.093 277.23 317.304C277.23 317.514 277.182 317.703 277.087 317.87C276.994 318.036 276.864 318.168 276.697 318.263C276.53 318.356 276.343 318.403 276.135 318.403ZM276.135 318.144C276.288 318.144 276.425 318.11 276.545 318.042C276.668 317.971 276.764 317.871 276.832 317.742C276.901 317.614 276.935 317.468 276.935 317.304C276.935 317.14 276.901 316.993 276.832 316.865C276.764 316.736 276.668 316.638 276.545 316.569C276.425 316.498 276.288 316.463 276.135 316.463C275.982 316.463 275.844 316.498 275.721 316.569C275.601 316.638 275.505 316.736 275.434 316.865C275.365 316.993 275.331 317.14 275.331 317.304C275.331 317.468 275.365 317.614 275.434 317.742C275.505 317.871 275.601 317.971 275.721 318.042C275.844 318.11 275.982 318.144 276.135 318.144ZM279.769 316.225V318.382H279.49V317.989C279.413 318.12 279.308 318.222 279.174 318.296C279.04 318.367 278.887 318.403 278.715 318.403C278.433 318.403 278.21 318.325 278.046 318.169C277.885 318.01 277.804 317.779 277.804 317.476V316.225H278.095V317.447C278.095 317.674 278.151 317.846 278.264 317.964C278.376 318.082 278.536 318.14 278.743 318.14C278.97 318.14 279.149 318.072 279.281 317.935C279.412 317.796 279.478 317.603 279.478 317.357V316.225H279.769ZM280.863 316.647C280.932 316.502 281.033 316.393 281.167 316.319C281.304 316.245 281.472 316.209 281.671 316.209V316.492L281.602 316.487C281.375 316.487 281.197 316.557 281.068 316.697C280.94 316.836 280.876 317.032 280.876 317.283V318.382H280.584V316.225H280.863V316.647ZM284.44 318.251C284.385 318.3 284.317 318.339 284.235 318.366C284.156 318.391 284.072 318.403 283.985 318.403C283.783 318.403 283.627 318.348 283.517 318.239C283.408 318.129 283.353 317.975 283.353 317.775V316.471H282.968V316.225H283.353V315.753H283.644V316.225H284.301V316.471H283.644V317.759C283.644 317.887 283.676 317.986 283.739 318.054C283.804 318.12 283.897 318.153 284.018 318.153C284.078 318.153 284.135 318.143 284.19 318.124C284.247 318.105 284.297 318.077 284.338 318.042L284.44 318.251ZM286.773 317.394H284.968C284.984 317.618 285.071 317.8 285.226 317.939C285.382 318.076 285.579 318.144 285.817 318.144C285.951 318.144 286.074 318.121 286.186 318.075C286.298 318.025 286.395 317.954 286.477 317.861L286.641 318.05C286.546 318.165 286.425 318.252 286.28 318.313C286.138 318.373 285.981 318.403 285.809 318.403C285.587 318.403 285.39 318.356 285.218 318.263C285.049 318.168 284.916 318.036 284.82 317.87C284.725 317.703 284.677 317.514 284.677 317.304C284.677 317.093 284.722 316.904 284.812 316.738C284.905 316.571 285.031 316.441 285.189 316.348C285.351 316.255 285.531 316.209 285.731 316.209C285.93 316.209 286.11 316.255 286.268 316.348C286.427 316.441 286.551 316.571 286.641 316.738C286.732 316.902 286.777 317.09 286.777 317.304L286.773 317.394ZM285.731 316.459C285.523 316.459 285.348 316.526 285.206 316.66C285.066 316.791 284.987 316.963 284.968 317.176H286.498C286.479 316.963 286.398 316.791 286.256 316.66C286.116 316.526 285.941 316.459 285.731 316.459ZM288.683 318.382L287.998 317.48L287.309 318.382H286.981L287.834 317.275L287.022 316.225H287.35L287.998 317.07L288.647 316.225H288.966L288.154 317.275L289.016 318.382H288.683ZM290.636 318.251C290.582 318.3 290.513 318.339 290.431 318.366C290.352 318.391 290.269 318.403 290.181 318.403C289.979 318.403 289.823 318.348 289.714 318.239C289.604 318.129 289.55 317.975 289.55 317.775V316.471H289.164V316.225H289.55V315.753H289.841V316.225H290.497V316.471H289.841V317.759C289.841 317.887 289.872 317.986 289.935 318.054C290.001 318.12 290.094 318.153 290.214 318.153C290.274 318.153 290.332 318.143 290.386 318.124C290.444 318.105 290.493 318.077 290.534 318.042L290.636 318.251Z" fill="#37366A"/>
<path d="M418.207 331.468H269.536C267.121 331.468 265.151 329.423 265.151 326.916V311.396C265.151 308.889 267.121 306.844 269.536 306.844H418.207C420.622 306.844 422.593 308.889 422.593 311.396V326.916C422.593 329.44 420.638 331.468 418.207 331.468Z" stroke="#37366A" stroke-width="0.5" stroke-miterlimit="10"/>
<g opacity="0.52">
<path opacity="0.52" d="M266.877 354.412C266.592 354.412 266.335 354.349 266.105 354.223C265.879 354.098 265.699 353.924 265.568 353.703C265.44 353.478 265.375 353.228 265.375 352.952C265.375 352.676 265.44 352.427 265.568 352.205C265.699 351.981 265.88 351.806 266.11 351.68C266.339 351.555 266.596 351.492 266.881 351.492C267.094 351.492 267.291 351.527 267.471 351.598C267.652 351.67 267.805 351.773 267.931 351.91L267.738 352.103C267.514 351.876 267.231 351.762 266.889 351.762C266.662 351.762 266.455 351.814 266.27 351.918C266.084 352.022 265.937 352.164 265.831 352.345C265.727 352.525 265.675 352.728 265.675 352.952C265.675 353.176 265.727 353.378 265.831 353.559C265.937 353.739 266.084 353.882 266.27 353.986C266.455 354.089 266.662 354.141 266.889 354.141C267.233 354.141 267.516 354.027 267.738 353.797L267.931 353.99C267.805 354.126 267.65 354.232 267.467 354.305C267.287 354.377 267.09 354.412 266.877 354.412ZM268.516 352.23H268.807V354.387H268.516V352.23ZM268.664 351.758C268.604 351.758 268.553 351.738 268.512 351.697C268.471 351.656 268.45 351.607 268.45 351.549C268.45 351.495 268.471 351.447 268.512 351.406C268.553 351.365 268.604 351.344 268.664 351.344C268.724 351.344 268.775 351.365 268.816 351.406C268.857 351.444 268.877 351.49 268.877 351.545C268.877 351.605 268.857 351.656 268.816 351.697C268.775 351.738 268.724 351.758 268.664 351.758ZM270.754 354.256C270.699 354.305 270.631 354.344 270.549 354.371C270.469 354.396 270.386 354.408 270.298 354.408C270.096 354.408 269.94 354.353 269.831 354.244C269.721 354.135 269.667 353.98 269.667 353.78V352.476H269.281V352.23H269.667V351.758H269.958V352.23H270.614V352.476H269.958V353.764C269.958 353.893 269.989 353.991 270.052 354.059C270.118 354.125 270.211 354.158 270.331 354.158C270.391 354.158 270.449 354.148 270.504 354.129C270.561 354.11 270.61 354.083 270.651 354.047L270.754 354.256ZM273.057 352.23L271.978 354.646C271.89 354.848 271.789 354.992 271.674 355.077C271.56 355.161 271.422 355.204 271.26 355.204C271.156 355.204 271.059 355.187 270.969 355.154C270.879 355.122 270.801 355.072 270.735 355.007L270.871 354.789C270.98 354.899 271.111 354.953 271.264 354.953C271.363 354.953 271.446 354.926 271.514 354.871C271.586 354.817 271.651 354.724 271.711 354.593L271.806 354.383L270.842 352.23H271.145L271.957 354.063L272.77 352.23H273.057Z" fill="#37366A"/>
</g>
<path d="M273.94 375.263V376.255H273.641V375.263L272.492 373.384H272.816L273.801 374.996L274.785 373.384H275.088L273.94 375.263ZM276.135 376.276C275.927 376.276 275.74 376.229 275.573 376.136C275.406 376.041 275.275 375.909 275.179 375.743C275.084 375.576 275.036 375.387 275.036 375.177C275.036 374.966 275.084 374.777 275.179 374.611C275.275 374.444 275.406 374.314 275.573 374.221C275.74 374.128 275.927 374.082 276.135 374.082C276.343 374.082 276.53 374.128 276.697 374.221C276.864 374.314 276.994 374.444 277.087 374.611C277.182 374.777 277.23 374.966 277.23 375.177C277.23 375.387 277.182 375.576 277.087 375.743C276.994 375.909 276.864 376.041 276.697 376.136C276.53 376.229 276.343 376.276 276.135 376.276ZM276.135 376.017C276.288 376.017 276.425 375.983 276.545 375.915C276.668 375.844 276.764 375.744 276.832 375.616C276.901 375.487 276.935 375.341 276.935 375.177C276.935 375.013 276.901 374.866 276.832 374.738C276.764 374.609 276.668 374.511 276.545 374.443C276.425 374.371 276.288 374.336 276.135 374.336C275.982 374.336 275.844 374.371 275.721 374.443C275.601 374.511 275.505 374.609 275.434 374.738C275.365 374.866 275.331 375.013 275.331 375.177C275.331 375.341 275.365 375.487 275.434 375.616C275.505 375.744 275.601 375.844 275.721 375.915C275.844 375.983 275.982 376.017 276.135 376.017ZM279.769 374.098V376.255H279.49V375.862C279.413 375.993 279.308 376.095 279.174 376.169C279.04 376.24 278.887 376.276 278.715 376.276C278.433 376.276 278.21 376.198 278.046 376.042C277.885 375.884 277.804 375.652 277.804 375.349V374.098H278.095V375.32C278.095 375.547 278.151 375.719 278.264 375.837C278.376 375.955 278.536 376.013 278.743 376.013C278.97 376.013 279.149 375.945 279.281 375.808C279.412 375.669 279.478 375.476 279.478 375.23V374.098H279.769ZM280.863 374.52C280.932 374.376 281.033 374.266 281.167 374.192C281.304 374.118 281.472 374.082 281.671 374.082V374.365L281.602 374.36C281.375 374.36 281.197 374.43 281.068 374.57C280.94 374.709 280.876 374.905 280.876 375.156V376.255H280.584V374.098H280.863V374.52ZM284.612 376.28C284.328 376.28 284.071 376.217 283.841 376.091C283.614 375.966 283.435 375.792 283.304 375.57C283.176 375.346 283.111 375.096 283.111 374.82C283.111 374.544 283.176 374.295 283.304 374.073C283.435 373.849 283.616 373.674 283.845 373.548C284.075 373.423 284.332 373.36 284.617 373.36C284.83 373.36 285.027 373.395 285.207 373.466C285.388 373.537 285.541 373.641 285.667 373.778L285.474 373.971C285.25 373.744 284.967 373.63 284.625 373.63C284.398 373.63 284.191 373.682 284.005 373.786C283.819 373.89 283.673 374.032 283.567 374.213C283.463 374.393 283.411 374.596 283.411 374.82C283.411 375.044 283.463 375.246 283.567 375.427C283.673 375.607 283.819 375.75 284.005 375.853C284.191 375.957 284.398 376.009 284.625 376.009C284.969 376.009 285.252 375.894 285.474 375.665L285.667 375.858C285.541 375.994 285.386 376.1 285.203 376.173C285.023 376.244 284.826 376.28 284.612 376.28ZM286.252 374.098H286.543V376.255H286.252V374.098ZM286.4 373.626C286.34 373.626 286.289 373.606 286.248 373.565C286.207 373.524 286.186 373.475 286.186 373.417C286.186 373.362 286.207 373.315 286.248 373.274C286.289 373.233 286.34 373.212 286.4 373.212C286.46 373.212 286.51 373.233 286.551 373.274C286.592 373.312 286.613 373.358 286.613 373.413C286.613 373.473 286.592 373.524 286.551 373.565C286.51 373.606 286.46 373.626 286.4 373.626ZM288.49 376.124C288.435 376.173 288.367 376.212 288.285 376.239C288.205 376.264 288.122 376.276 288.034 376.276C287.832 376.276 287.676 376.221 287.567 376.112C287.457 376.002 287.403 375.848 287.403 375.648V374.344H287.017V374.098H287.403V373.626H287.694V374.098H288.35V374.344H287.694V375.632C287.694 375.76 287.725 375.859 287.788 375.927C287.854 375.993 287.947 376.026 288.067 376.026C288.127 376.026 288.185 376.016 288.239 375.997C288.297 375.978 288.346 375.95 288.387 375.915L288.49 376.124ZM290.793 374.098L289.714 376.514C289.626 376.716 289.525 376.86 289.41 376.944C289.295 377.029 289.157 377.072 288.996 377.072C288.892 377.072 288.795 377.055 288.705 377.022C288.615 376.99 288.537 376.94 288.471 376.875L288.606 376.657C288.716 376.767 288.847 376.821 289 376.821C289.099 376.821 289.182 376.794 289.25 376.739C289.321 376.685 289.387 376.592 289.447 376.46L289.542 376.251L288.578 374.098H288.881L289.693 375.931L290.505 374.098H290.793Z" fill="#37366A"/>
<path d="M418.207 389.343H269.536C267.121 389.343 265.151 387.298 265.151 384.791V369.271C265.151 366.764 267.121 364.719 269.536 364.719H418.207C420.622 364.719 422.593 366.764 422.593 369.271V384.791C422.593 387.315 420.638 389.343 418.207 389.343Z" stroke="#37366A" stroke-width="0.5" stroke-miterlimit="10"/>
<g opacity="0.52">
<path opacity="0.52" d="M266.704 409.671C267.071 409.671 267.358 409.759 267.566 409.934C267.773 410.109 267.877 410.349 267.877 410.656C267.877 410.962 267.773 411.202 267.566 411.377C267.358 411.55 267.071 411.636 266.704 411.636H265.933V412.542H265.63V409.671H266.704ZM266.696 411.369C266.98 411.369 267.198 411.308 267.348 411.185C267.499 411.059 267.574 410.882 267.574 410.656C267.574 410.423 267.499 410.245 267.348 410.122C267.198 409.997 266.98 409.934 266.696 409.934H265.933V411.369H266.696ZM269.207 410.368C269.488 410.368 269.704 410.44 269.855 410.582C270.005 410.721 270.08 410.929 270.08 411.205V412.542H269.801V412.206C269.736 412.318 269.639 412.406 269.51 412.468C269.384 412.531 269.234 412.563 269.059 412.563C268.818 412.563 268.627 412.505 268.485 412.39C268.343 412.276 268.272 412.124 268.272 411.935C268.272 411.752 268.337 411.604 268.468 411.492C268.602 411.38 268.814 411.324 269.104 411.324H269.789V411.193C269.789 411.007 269.737 410.866 269.633 410.77C269.529 410.672 269.378 410.623 269.178 410.623C269.041 410.623 268.91 410.646 268.784 410.692C268.658 410.736 268.55 410.798 268.46 410.877L268.329 410.66C268.438 410.567 268.57 410.496 268.723 410.446C268.876 410.394 269.037 410.368 269.207 410.368ZM269.104 412.333C269.268 412.333 269.409 412.296 269.527 412.222C269.644 412.146 269.732 412.036 269.789 411.894V411.541H269.112C268.743 411.541 268.559 411.67 268.559 411.927C268.559 412.053 268.607 412.153 268.702 412.226C268.798 412.298 268.932 412.333 269.104 412.333ZM271.45 412.563C271.275 412.563 271.106 412.538 270.945 412.489C270.786 412.437 270.662 412.373 270.572 412.296L270.703 412.066C270.793 412.138 270.907 412.196 271.044 412.243C271.18 412.287 271.322 412.308 271.47 412.308C271.667 412.308 271.812 412.278 271.905 412.218C272.001 412.155 272.048 412.068 272.048 411.956C272.048 411.876 272.022 411.815 271.97 411.771C271.919 411.725 271.853 411.69 271.774 411.669C271.694 411.644 271.589 411.621 271.458 411.599C271.283 411.566 271.142 411.533 271.035 411.5C270.929 411.465 270.837 411.406 270.761 411.324C270.687 411.242 270.65 411.129 270.65 410.984C270.65 410.803 270.725 410.656 270.875 410.541C271.026 410.426 271.235 410.368 271.503 410.368C271.642 410.368 271.782 410.388 271.921 410.426C272.061 410.461 272.176 410.509 272.266 410.569L272.139 410.803C271.961 410.68 271.749 410.619 271.503 410.619C271.317 410.619 271.176 410.651 271.08 410.717C270.987 410.783 270.941 410.869 270.941 410.975C270.941 411.057 270.967 411.123 271.019 411.172C271.074 411.222 271.141 411.258 271.22 411.283C271.299 411.305 271.409 411.328 271.548 411.353C271.72 411.386 271.858 411.418 271.962 411.451C272.066 411.484 272.155 411.54 272.229 411.619C272.303 411.699 272.34 411.808 272.34 411.948C272.34 412.136 272.26 412.287 272.102 412.399C271.946 412.508 271.728 412.563 271.45 412.563ZM273.456 412.563C273.281 412.563 273.113 412.538 272.952 412.489C272.793 412.437 272.669 412.373 272.579 412.296L272.71 412.066C272.8 412.138 272.913 412.196 273.05 412.243C273.187 412.287 273.329 412.308 273.477 412.308C273.674 412.308 273.819 412.278 273.912 412.218C274.007 412.155 274.055 412.068 274.055 411.956C274.055 411.876 274.029 411.815 273.977 411.771C273.925 411.725 273.86 411.69 273.78 411.669C273.701 411.644 273.596 411.621 273.464 411.599C273.289 411.566 273.149 411.533 273.042 411.5C272.935 411.465 272.844 411.406 272.767 411.324C272.693 411.242 272.656 411.129 272.656 410.984C272.656 410.803 272.732 410.656 272.882 410.541C273.032 410.426 273.242 410.368 273.51 410.368C273.649 410.368 273.788 410.388 273.928 410.426C274.067 410.461 274.182 410.509 274.272 410.569L274.145 410.803C273.968 410.68 273.756 410.619 273.51 410.619C273.324 410.619 273.183 410.651 273.087 410.717C272.994 410.783 272.948 410.869 272.948 410.975C272.948 411.057 272.974 411.123 273.026 411.172C273.08 411.222 273.147 411.258 273.227 411.283C273.306 411.305 273.415 411.328 273.555 411.353C273.727 411.386 273.865 411.418 273.969 411.451C274.073 411.484 274.162 411.54 274.236 411.619C274.309 411.699 274.346 411.808 274.346 411.948C274.346 412.136 274.267 412.287 274.108 412.399C273.953 412.508 273.735 412.563 273.456 412.563ZM278.011 410.385L277.195 412.542H276.92L276.239 410.774L275.558 412.542H275.283L274.471 410.385H274.75L275.427 412.218L276.12 410.385H276.37L277.059 412.218L277.744 410.385H278.011ZM279.271 412.563C279.063 412.563 278.876 412.516 278.709 412.423C278.542 412.328 278.411 412.196 278.316 412.03C278.22 411.863 278.172 411.674 278.172 411.464C278.172 411.253 278.22 411.064 278.316 410.898C278.411 410.731 278.542 410.601 278.709 410.508C278.876 410.415 279.063 410.368 279.271 410.368C279.479 410.368 279.666 410.415 279.833 410.508C280 410.601 280.13 410.731 280.223 410.898C280.318 411.064 280.366 411.253 280.366 411.464C280.366 411.674 280.318 411.863 280.223 412.03C280.13 412.196 280 412.328 279.833 412.423C279.666 412.516 279.479 412.563 279.271 412.563ZM279.271 412.304C279.424 412.304 279.561 412.27 279.681 412.202C279.804 412.131 279.9 412.031 279.968 411.902C280.037 411.774 280.071 411.628 280.071 411.464C280.071 411.299 280.037 411.153 279.968 411.025C279.9 410.896 279.804 410.798 279.681 410.729C279.561 410.658 279.424 410.623 279.271 410.623C279.118 410.623 278.98 410.658 278.857 410.729C278.737 410.798 278.641 410.896 278.57 411.025C278.501 411.153 278.467 411.299 278.467 411.464C278.467 411.628 278.501 411.774 278.57 411.902C278.641 412.031 278.737 412.131 278.857 412.202C278.98 412.27 279.118 412.304 279.271 412.304ZM281.24 410.807C281.308 410.662 281.409 410.553 281.543 410.479C281.68 410.405 281.848 410.368 282.048 410.368V410.651L281.978 410.647C281.751 410.647 281.573 410.717 281.445 410.857C281.316 410.996 281.252 411.191 281.252 411.443V412.542H280.961V410.385H281.24V410.807ZM284.524 409.499V412.542H284.245V412.116C284.157 412.261 284.041 412.371 283.896 412.448C283.754 412.524 283.593 412.563 283.412 412.563C283.21 412.563 283.027 412.516 282.863 412.423C282.698 412.33 282.57 412.2 282.477 412.034C282.384 411.867 282.338 411.677 282.338 411.464C282.338 411.25 282.384 411.06 282.477 410.893C282.57 410.727 282.698 410.598 282.863 410.508C283.027 410.415 283.21 410.368 283.412 410.368C283.587 410.368 283.744 410.405 283.884 410.479C284.026 410.55 284.142 410.656 284.232 410.795V409.499H284.524ZM283.437 412.304C283.587 412.304 283.722 412.27 283.843 412.202C283.966 412.131 284.062 412.031 284.13 411.902C284.201 411.774 284.237 411.628 284.237 411.464C284.237 411.299 284.201 411.153 284.13 411.025C284.062 410.896 283.966 410.798 283.843 410.729C283.722 410.658 283.587 410.623 283.437 410.623C283.284 410.623 283.146 410.658 283.022 410.729C282.902 410.798 282.806 410.896 282.735 411.025C282.667 411.153 282.633 411.299 282.633 411.464C282.633 411.628 282.667 411.774 282.735 411.902C282.806 412.031 282.902 412.131 283.022 412.202C283.146 412.27 283.284 412.304 283.437 412.304Z" fill="#37366A"/>
</g>
<path d="M274.986 434.146V434.409H272.956V431.538H274.924V431.8H273.259V432.822H274.744V433.08H273.259V434.146H274.986ZM276.737 432.235C277.008 432.235 277.222 432.314 277.381 432.473C277.542 432.629 277.623 432.857 277.623 433.158V434.409H277.332V433.187C277.332 432.962 277.276 432.792 277.164 432.674C277.051 432.556 276.891 432.498 276.684 432.498C276.451 432.498 276.267 432.567 276.13 432.707C275.996 432.844 275.929 433.034 275.929 433.277V434.409H275.638V432.252H275.917V432.649C275.996 432.518 276.105 432.417 276.245 432.346C276.387 432.272 276.551 432.235 276.737 432.235ZM279.55 434.278C279.495 434.327 279.427 434.365 279.345 434.393C279.265 434.417 279.182 434.429 279.094 434.429C278.892 434.429 278.736 434.375 278.627 434.265C278.517 434.156 278.463 434.002 278.463 433.802V432.498H278.077V432.252H278.463V431.78H278.754V432.252H279.41V432.498H278.754V433.786C278.754 433.914 278.785 434.012 278.848 434.081C278.914 434.146 279.007 434.179 279.127 434.179C279.187 434.179 279.245 434.17 279.299 434.151C279.357 434.131 279.406 434.104 279.447 434.069L279.55 434.278ZM280.359 432.674C280.427 432.529 280.528 432.42 280.662 432.346C280.799 432.272 280.967 432.235 281.167 432.235V432.518L281.097 432.514C280.87 432.514 280.692 432.584 280.564 432.723C280.435 432.863 280.371 433.058 280.371 433.31V434.409H280.08V432.252H280.359V432.674ZM283.599 432.252L282.52 434.667C282.433 434.87 282.332 435.013 282.217 435.098C282.102 435.183 281.964 435.225 281.802 435.225C281.699 435.225 281.601 435.209 281.511 435.176C281.421 435.143 281.343 435.094 281.277 435.028L281.413 434.811C281.522 434.92 281.653 434.975 281.807 434.975C281.905 434.975 281.988 434.948 282.057 434.893C282.128 434.838 282.193 434.745 282.254 434.614L282.348 434.405L281.384 432.252H281.688L282.5 434.085L283.312 432.252H283.599ZM286.194 432.235C286.396 432.235 286.579 432.282 286.744 432.375C286.908 432.465 287.036 432.593 287.129 432.76C287.222 432.927 287.269 433.117 287.269 433.33C287.269 433.546 287.222 433.738 287.129 433.904C287.036 434.071 286.908 434.201 286.744 434.294C286.582 434.384 286.399 434.429 286.194 434.429C286.019 434.429 285.86 434.394 285.718 434.323C285.579 434.249 285.464 434.142 285.374 434.003V435.205H285.082V432.252H285.361V432.678C285.449 432.536 285.564 432.427 285.706 432.35C285.851 432.273 286.013 432.235 286.194 432.235ZM286.173 434.171C286.324 434.171 286.461 434.137 286.584 434.069C286.707 433.997 286.802 433.898 286.871 433.769C286.942 433.641 286.977 433.494 286.977 433.33C286.977 433.166 286.942 433.021 286.871 432.895C286.802 432.767 286.707 432.667 286.584 432.596C286.461 432.525 286.324 432.489 286.173 432.489C286.02 432.489 285.882 432.525 285.759 432.596C285.639 432.667 285.543 432.767 285.472 432.895C285.404 433.021 285.37 433.166 285.37 433.33C285.37 433.494 285.404 433.641 285.472 433.769C285.543 433.898 285.639 433.997 285.759 434.069C285.882 434.137 286.02 434.171 286.173 434.171ZM288.605 432.235C288.886 432.235 289.102 432.306 289.253 432.448C289.403 432.588 289.478 432.796 289.478 433.072V434.409H289.2V434.073C289.134 434.185 289.037 434.272 288.908 434.335C288.783 434.398 288.632 434.429 288.457 434.429C288.217 434.429 288.025 434.372 287.883 434.257C287.741 434.142 287.67 433.991 287.67 433.802C287.67 433.619 287.735 433.471 287.867 433.359C288.001 433.247 288.212 433.191 288.502 433.191H289.187V433.06C289.187 432.874 289.135 432.733 289.031 432.637C288.927 432.539 288.776 432.489 288.576 432.489C288.439 432.489 288.308 432.513 288.182 432.559C288.057 432.603 287.949 432.664 287.858 432.744L287.727 432.526C287.836 432.433 287.968 432.362 288.121 432.313C288.274 432.261 288.435 432.235 288.605 432.235ZM288.502 434.2C288.666 434.2 288.807 434.163 288.925 434.089C289.042 434.012 289.13 433.903 289.187 433.761V433.408H288.51C288.141 433.408 287.957 433.537 287.957 433.794C287.957 433.919 288.005 434.019 288.1 434.093C288.196 434.164 288.33 434.2 288.502 434.2ZM290.848 434.429C290.673 434.429 290.505 434.405 290.343 434.356C290.185 434.304 290.06 434.239 289.97 434.163L290.101 433.933C290.191 434.004 290.305 434.063 290.442 434.11C290.578 434.153 290.721 434.175 290.868 434.175C291.065 434.175 291.21 434.145 291.303 434.085C291.399 434.022 291.447 433.935 291.447 433.822C291.447 433.743 291.421 433.682 291.369 433.638C291.317 433.591 291.251 433.557 291.172 433.535C291.092 433.511 290.987 433.487 290.856 433.466C290.681 433.433 290.54 433.4 290.433 433.367C290.327 433.332 290.235 433.273 290.159 433.191C290.085 433.109 290.048 432.995 290.048 432.85C290.048 432.67 290.123 432.522 290.273 432.407C290.424 432.293 290.633 432.235 290.901 432.235C291.04 432.235 291.18 432.254 291.319 432.293C291.459 432.328 291.574 432.376 291.664 432.436L291.537 432.67C291.359 432.547 291.147 432.485 290.901 432.485C290.715 432.485 290.574 432.518 290.479 432.584C290.386 432.649 290.339 432.736 290.339 432.842C290.339 432.924 290.365 432.99 290.417 433.039C290.472 433.088 290.539 433.125 290.618 433.15C290.697 433.172 290.807 433.195 290.946 433.22C291.118 433.252 291.256 433.285 291.36 433.318C291.464 433.351 291.553 433.407 291.627 433.486C291.701 433.565 291.738 433.675 291.738 433.814C291.738 434.003 291.658 434.153 291.5 434.265C291.344 434.375 291.127 434.429 290.848 434.429ZM292.854 434.429C292.679 434.429 292.511 434.405 292.35 434.356C292.191 434.304 292.067 434.239 291.977 434.163L292.108 433.933C292.198 434.004 292.312 434.063 292.448 434.11C292.585 434.153 292.727 434.175 292.875 434.175C293.072 434.175 293.217 434.145 293.31 434.085C293.405 434.022 293.453 433.935 293.453 433.822C293.453 433.743 293.427 433.682 293.375 433.638C293.323 433.591 293.258 433.557 293.178 433.535C293.099 433.511 292.994 433.487 292.863 433.466C292.688 433.433 292.547 433.4 292.44 433.367C292.334 433.332 292.242 433.273 292.165 433.191C292.092 433.109 292.055 432.995 292.055 432.85C292.055 432.67 292.13 432.522 292.28 432.407C292.431 432.293 292.64 432.235 292.908 432.235C293.047 432.235 293.187 432.254 293.326 432.293C293.466 432.328 293.58 432.376 293.671 432.436L293.543 432.67C293.366 432.547 293.154 432.485 292.908 432.485C292.722 432.485 292.581 432.518 292.485 432.584C292.392 432.649 292.346 432.736 292.346 432.842C292.346 432.924 292.372 432.99 292.424 433.039C292.478 433.088 292.545 433.125 292.625 433.15C292.704 433.172 292.813 433.195 292.953 433.22C293.125 433.252 293.263 433.285 293.367 433.318C293.471 433.351 293.56 433.407 293.634 433.486C293.708 433.565 293.744 433.675 293.744 433.814C293.744 434.003 293.665 434.153 293.507 434.265C293.351 434.375 293.133 434.429 292.854 434.429ZM297.409 432.252L296.593 434.409H296.318L295.637 432.641L294.956 434.409H294.682L293.869 432.252H294.148L294.825 434.085L295.518 432.252H295.768L296.458 434.085L297.142 432.252H297.409ZM298.669 434.429C298.461 434.429 298.274 434.383 298.107 434.29C297.941 434.194 297.809 434.063 297.714 433.896C297.618 433.729 297.57 433.541 297.57 433.33C297.57 433.12 297.618 432.931 297.714 432.764C297.809 432.597 297.941 432.468 298.107 432.375C298.274 432.282 298.461 432.235 298.669 432.235C298.877 432.235 299.064 432.282 299.231 432.375C299.398 432.468 299.528 432.597 299.621 432.764C299.717 432.931 299.764 433.12 299.764 433.33C299.764 433.541 299.717 433.729 299.621 433.896C299.528 434.063 299.398 434.194 299.231 434.29C299.064 434.383 298.877 434.429 298.669 434.429ZM298.669 434.171C298.822 434.171 298.959 434.137 299.079 434.069C299.202 433.997 299.298 433.898 299.367 433.769C299.435 433.641 299.469 433.494 299.469 433.33C299.469 433.166 299.435 433.02 299.367 432.891C299.298 432.763 299.202 432.664 299.079 432.596C298.959 432.525 298.822 432.489 298.669 432.489C298.516 432.489 298.378 432.525 298.255 432.596C298.135 432.664 298.039 432.763 297.968 432.891C297.9 433.02 297.865 433.166 297.865 433.33C297.865 433.494 297.9 433.641 297.968 433.769C298.039 433.898 298.135 433.997 298.255 434.069C298.378 434.137 298.516 434.171 298.669 434.171ZM300.638 432.674C300.706 432.529 300.807 432.42 300.941 432.346C301.078 432.272 301.246 432.235 301.446 432.235V432.518L301.376 432.514C301.149 432.514 300.971 432.584 300.843 432.723C300.714 432.863 300.65 433.058 300.65 433.31V434.409H300.359V432.252H300.638V432.674ZM303.922 431.366V434.409H303.643V433.982C303.555 434.127 303.439 434.238 303.294 434.315C303.152 434.391 302.991 434.429 302.81 434.429C302.608 434.429 302.425 434.383 302.261 434.29C302.097 434.197 301.968 434.067 301.875 433.9C301.782 433.734 301.736 433.544 301.736 433.33C301.736 433.117 301.782 432.927 301.875 432.76C301.968 432.593 302.097 432.465 302.261 432.375C302.425 432.282 302.608 432.235 302.81 432.235C302.985 432.235 303.142 432.272 303.282 432.346C303.424 432.417 303.54 432.522 303.631 432.662V431.366H303.922ZM302.835 434.171C302.985 434.171 303.121 434.137 303.241 434.069C303.364 433.997 303.46 433.898 303.528 433.769C303.599 433.641 303.635 433.494 303.635 433.33C303.635 433.166 303.599 433.02 303.528 432.891C303.46 432.763 303.364 432.664 303.241 432.596C303.121 432.525 302.985 432.489 302.835 432.489C302.682 432.489 302.544 432.525 302.421 432.596C302.3 432.664 302.205 432.763 302.134 432.891C302.065 433.02 302.031 433.166 302.031 433.33C302.031 433.494 302.065 433.641 302.134 433.769C302.205 433.898 302.3 433.997 302.421 434.069C302.544 434.137 302.682 434.171 302.835 434.171Z" fill="#37366A"/>
<path d="M418.207 447.499H269.536C267.121 447.499 265.151 445.454 265.151 442.947V427.426C265.151 424.919 267.121 422.874 269.536 422.874H418.207C420.622 422.874 422.593 424.919 422.593 427.426V442.947C422.593 445.454 420.638 447.499 418.207 447.499Z" stroke="#37366A" stroke-width="0.5" stroke-miterlimit="10"/>
<path d="M336.984 258.469V267.161" stroke="#50C3E2" stroke-width="0.5" stroke-miterlimit="10"/>
<path opacity="0.25" d="M418.287 648.52C418.287 646.606 372.94 645.04 317.012 645.04C261.084 645.04 215.737 646.59 215.737 648.52C215.737 650.433 261.084 652 317.012 652C372.956 652 418.287 650.449 418.287 648.52Z" fill="#6756AD"/>
<path d="M327.721 426.091C327.721 426.091 337.779 442.221 340.066 435.228C342.339 428.235 343.737 423.963 343.737 423.963C343.737 423.963 340.877 419.098 339.367 420.599C337.779 422.166 335.729 419.312 335.729 419.312L327.721 426.091Z" fill="#F5BA9A"/>
<path d="M377.453 342.667L381.616 317.598C384.348 316.69 387.145 314.497 386.191 311.116C385.715 309.417 384.428 308.526 382.934 307.933C382.362 307.718 379.455 306.844 379.264 307.998C379.264 307.982 380.853 298.96 380.853 298.96L352.539 284.776C352.539 284.776 349.965 302.77 349.933 302.985C349.981 302.704 347.185 302.061 346.803 302.094C345.373 302.259 343.991 303.628 343.435 304.914C341.957 308.328 344.817 312.633 348.376 312.699C348.376 312.699 348.869 320.764 350.664 323.634C352.46 326.504 360.785 328.483 360.785 328.483L359.88 339.402L377.453 342.667Z" fill="#F5BA9A"/>
<path d="M387.018 344.729C374.227 341.001 356.241 337.719 356.241 337.719L344.325 425.86L394.549 424.243L387.018 344.729Z" fill="#FFA938"/>
<path d="M387.018 344.729C403.733 349.281 420.225 352.712 437.401 354.542C433.572 336.482 431.474 322.661 426.485 307.322C431.252 306.069 440.579 303.595 445.345 302.341C445.345 302.341 461.17 359.556 456.356 367.176C448.189 380.157 407.482 371.613 407.482 371.613L388.225 368.051L387.018 344.729Z" fill="#FFA938"/>
<path d="M300.996 364.125C300.996 364.125 354.907 336.746 357.385 337.752C359.864 338.758 361.961 351.458 361.961 351.458C361.961 351.458 342.418 364.372 312.198 378.953L339.685 417.794L325.989 427.987C325.989 427.987 288.237 383.95 289.667 374.846C290.796 367.836 300.996 364.125 300.996 364.125Z" fill="#FFA938"/>
<path d="M444.535 302.556C444.535 302.556 442.31 286.359 442.04 285.897C441.77 285.435 441.77 282.582 437.766 283.275C437.766 283.275 437.496 278.145 435.192 278.046C432.873 277.947 430.299 278.607 430.299 278.607C430.299 278.607 427.693 265.446 426.009 263.169C424.166 260.679 421.576 267.243 425.58 283.275C425.58 283.275 427.804 294.177 427.137 294.573C425.341 295.661 422.879 295.463 419.478 289.41C415.856 282.978 411.343 285.155 413.568 290.153C415.792 295.15 418.954 301.599 420.988 303.347C423.037 305.095 427.359 304.832 427.359 304.832L427.995 306.91L444.535 302.556Z" fill="#F5BA9A"/>
<path d="M394.565 424.26C388.511 519.641 367.967 637.354 367.967 637.354L388.082 646.194H345.246L373.338 438.032H363.709L292.639 646.326H249.85L274.192 637.106L345.246 419.081L394.565 424.26Z" fill="#594656"/>
<path d="M384.253 308.608C386.652 303.644 389.449 291.571 382.172 288.223C378.406 286.474 374.481 283.984 371.606 281.972C367.173 278.887 361.675 277.667 356.527 279.151C355.701 279.382 354.891 279.696 354.144 280.075C349.075 282.664 345.643 296.651 345.643 296.651L350.632 297.954C350.632 297.954 356.194 323.634 365.345 328.912L374.481 330.924L379.884 332.177L384.253 308.608Z" fill="#B96944"/>
<path d="M377.627 286.442C377.659 284.908 377.612 283.374 377.453 281.84C377.389 281.213 376.452 281.213 376.499 281.84C376.658 283.374 376.706 284.908 376.674 286.442C376.674 287.069 377.612 287.069 377.627 286.442Z" fill="#B96944"/>
<path d="M377.627 286.64C378.247 286.227 378.454 285.485 378.803 284.825C379.248 284.001 379.741 283.226 380.297 282.467C380.662 281.972 379.852 281.477 379.486 281.972C379.057 282.566 378.644 283.176 378.279 283.819C377.961 284.364 377.675 285.452 377.151 285.799C376.642 286.128 377.119 286.97 377.627 286.64Z" fill="#B96944"/>
<path opacity="0.25" d="M202.55 623.219C202.55 621.306 157.203 619.739 101.275 619.739C45.3464 619.739 0 621.289 0 623.219C0 625.132 45.3464 626.699 101.275 626.699C157.203 626.699 202.55 625.149 202.55 623.219Z" fill="#6756AD"/>
<path d="M136.119 258.254C134.212 257.809 132.448 257.726 130.017 257.496C126.395 257.149 123.09 259.59 120.341 262.064C117.592 264.555 115.622 267.804 113.843 271.103C112.031 274.467 110.331 278.376 111.412 282.071C111.682 283.011 112.143 283.934 112.127 284.907C112.095 287.959 108.027 289.113 106.756 291.884C105.183 295.298 108.393 299.883 106.216 302.918C105.136 304.436 103.038 304.914 102.022 306.464C101.211 307.685 101.243 309.285 101.307 310.769C101.322 311.066 101.354 311.412 101.561 311.61C101.736 311.775 102.006 311.808 102.244 311.841C113.843 312.996 125.33 310.39 136.929 311.544C138.327 311.676 139.741 311.825 141.14 311.66C143.142 311.412 145.016 310.538 146.86 309.68C156.885 304.93 166.927 303.71 176.714 298.482C177.128 298.267 177.557 298.02 177.763 297.591C177.922 297.261 177.922 296.882 177.874 296.519C177.604 293.83 175.698 291.406 173.235 290.598C170.677 289.773 167.626 290.499 165.497 288.816C163.956 287.612 163.4 285.485 163.193 283.489C162.78 279.448 163.225 274.764 160.397 271.927C158.188 269.717 154.645 269.47 152.421 267.276C151.149 266.023 150.482 264.274 149.449 262.806C146.478 258.469 141.378 255.962 136.119 258.254Z" fill="#594656"/>
<path d="M116.734 397.392L52.0674 609.81L26.6136 620.003H64.397L137.406 419.889C137.866 418.602 139.058 417.761 140.377 417.761C142.268 417.761 143.745 419.46 143.539 421.423L124.298 619.986H162.526L137.008 611.228C137.008 611.228 160.794 495.758 166.085 459.621C171.376 423.484 163.702 397.953 163.702 397.953C163.702 397.953 138.915 389.805 116.734 397.392Z" fill="#53648C"/>
<path d="M117.481 320.945C123.408 314.513 146.971 313.787 155.487 317.416C164.003 321.044 179.67 368.017 179.67 368.017L164.083 374.367L154.407 335.097L124.091 330.759L117.481 320.945Z" fill="#E1806D"/>
<path d="M157.314 340.869C157.314 340.869 159.968 334.371 160.54 329.357C161.112 324.343 154.534 319.428 154.534 319.428L118.879 329.027L121.104 351.079L115.877 395.627L161.191 397.376L156.631 341.067" fill="#E1806D"/>
<path d="M121.581 342.14C121.422 342.14 121.279 342.09 121.152 341.991C120.834 341.744 120.77 341.265 121.009 340.936L123.551 337.439C123.789 337.109 124.25 337.043 124.568 337.291C124.885 337.538 124.949 338.016 124.711 338.346L122.184 341.843C122.025 342.041 121.803 342.14 121.581 342.14Z" fill="#5D95BA"/>
<path d="M98.9391 403.214C101.656 401.565 104.389 399.916 107.122 398.266L98.9391 403.214Z" fill="#8FCAEC"/>
<path d="M134.244 315.651C133.751 310.736 136.166 305.755 128.524 302.572C117.99 298.185 115.734 260.481 134.752 260.399C153.787 260.316 152.85 285.205 152.77 292.594C152.691 299.983 146.431 301.863 144.858 304.535C143.285 307.207 144.651 315.651 144.651 315.651H134.244Z" fill="#F5BA9A"/>
<path d="M123.455 287.085C123.455 289.509 121.819 291.472 119.801 291.472C117.783 291.472 116.147 289.509 116.147 287.085C116.147 284.66 117.783 282.697 119.801 282.697C121.819 282.714 123.455 284.676 123.455 287.085Z" fill="#F5BA9A"/>
<path d="M153.93 288.09C155.948 288.09 157.584 286.126 157.584 283.703C157.584 281.28 155.948 279.316 153.93 279.316C151.912 279.316 150.276 281.28 150.276 283.703C150.276 286.126 151.912 288.09 153.93 288.09Z" fill="#F5BA9A"/>
<path d="M232.706 363.531L227.066 348.687L67.543 413.687C61.3781 405.045 51.4953 399.454 40.3573 399.454C21.6881 399.454 6.56201 415.155 6.56201 434.535C6.56201 453.915 21.6881 469.616 40.3573 469.616C59.0266 469.616 74.1527 453.915 74.1527 434.535C74.1527 433.1 74.0573 431.682 73.8985 430.28L195.384 379.216L202.057 394.456L216.881 387.413L211.67 375.291L216.468 372.652L222.124 384.313L232.722 378.441L226.843 366.005L232.706 363.531ZM40.3573 457.411C28.2025 457.411 18.3356 447.185 18.3356 434.551C18.3356 421.934 28.2025 411.692 40.3573 411.692C52.5122 411.692 62.3791 421.917 62.3791 434.551C62.3791 447.169 52.5281 457.411 40.3573 457.411Z" fill="#ADB9EA"/>
<path d="M117.481 320.945C117.481 320.945 77.2669 358.121 77.0445 365.016C76.822 371.91 100.735 408.212 100.735 408.212L112.683 400.361L95.9361 367.819L123.185 340.853C123.185 340.853 124.075 347.12 126.252 348.819L127.459 324.013L117.481 320.945Z" fill="#E1806D"/>
<path d="M148.957 269.074C143.729 269.354 120.548 271.795 120.548 271.795C120.548 271.795 123.932 257.347 134.752 256.786C148.957 256.044 148.957 269.074 148.957 269.074Z" fill="#594656"/>
<path d="M120.595 284.314C120.595 284.314 139.376 282.483 142.665 273.28C142.665 273.28 148.893 281.559 152.548 281.13C152.548 281.13 153.151 270.245 150.879 268.777C148.607 267.309 119.801 270.344 119.801 270.344C119.801 270.344 119.054 277.32 120.595 284.314Z" fill="#594656"/>
<path d="M101.243 407.783C101.243 407.783 106.375 419.015 106.661 419.279C106.947 419.543 107.583 421.621 110.331 420.186C110.331 420.186 111.634 423.847 113.334 423.369C115.034 422.891 116.766 421.819 116.766 421.819C116.766 421.819 118.832 424.672 120.357 423.155C122.137 421.39 120.452 419.444 119.181 417.316C119.181 417.316 115.209 409.927 115.606 409.482C116.671 408.278 118.498 407.849 122.296 411.444C126.315 415.254 129.112 412.632 126.427 409.531C123.726 406.43 120.039 402.489 118.18 401.697C116.321 400.905 113.239 402.109 113.239 402.109L112.333 400.74L101.243 407.783Z" fill="#F5BA9A"/>
<path d="M183.483 384.23C183.483 384.23 180.607 392.725 175.57 394.159C170.534 395.594 142.331 401.532 142.331 401.532V389.954L183.483 384.23Z" fill="#E1806D"/>
<path d="M142.331 391.339H140.186C140.186 391.339 139.71 389.772 139.392 389.261C138.502 387.777 126.697 386.21 126.919 387.826C127.142 389.426 129.08 389.822 133.243 390.63C133.243 390.63 117.672 394.555 119.134 395.825C120.595 397.112 130.319 394.159 130.319 394.159C130.319 394.159 119.785 397.722 120.532 400.147C120.961 401.532 131.638 398.266 131.638 398.266C131.638 398.266 120.754 402.307 122.693 403.66C124.615 405.029 136.643 401.961 137.803 401.532C138.963 401.103 139.408 398.778 139.408 398.778L142.347 398.266V391.339H142.331Z" fill="#F5BA9A"/>
<path d="M133.449 252.383C133.863 254.164 134.037 256.39 135.022 257.957C135.436 258.601 136.437 258.007 136.023 257.347C135.118 255.912 134.943 253.719 134.562 252.053C134.403 251.294 133.275 251.624 133.449 252.383Z" fill="#594656"/>
<path d="M135.992 258.056C136.58 256.951 137.215 255.896 137.898 254.84C138.311 254.197 137.31 253.586 136.897 254.23C136.214 255.269 135.579 256.341 134.991 257.446C134.609 258.139 135.626 258.749 135.992 258.056Z" fill="#594656"/>
<path d="M138.248 283.472C138.2 284.858 138.232 286.243 138.391 287.628C138.47 288.338 138.407 289.608 138.883 290.135C139.154 290.449 139.725 290.416 140.059 290.482C141.33 290.68 142.617 290.845 143.904 291.01C143.841 290.845 143.761 290.663 143.698 290.498C142.601 291.57 141.441 292.362 140.059 292.972C139.71 293.121 140.011 293.649 140.345 293.5C141.775 292.873 142.983 292.049 144.111 290.944C144.317 290.746 144.143 290.465 143.904 290.432C142.57 290.251 139.853 290.399 139.154 288.948C138.502 287.579 138.772 284.973 138.82 283.505C138.836 283.093 138.248 283.093 138.248 283.472Z" fill="#F49E78"/>
<path d="M144.222 287.629C144.397 286.243 143.539 283.027 145.223 282.351C146.717 281.757 147.654 283.043 147.876 284.346C148.019 285.171 148.162 285.979 148.305 286.804C148.369 287.183 148.941 287.018 148.862 286.639C148.512 284.627 148.433 281.213 145.557 281.609C142.871 281.988 143.857 285.847 143.634 287.612C143.586 288.024 144.174 288.024 144.222 287.629Z" fill="#514540"/>
<path d="M129.191 288.453C129.366 287.068 128.508 283.852 130.192 283.175C131.686 282.582 132.623 283.868 132.846 285.171C132.989 285.996 133.132 286.804 133.275 287.629C133.338 288.008 133.91 287.843 133.831 287.464C133.481 285.452 133.402 282.037 130.526 282.433C127.841 282.813 128.826 286.672 128.603 288.437C128.556 288.849 129.144 288.849 129.191 288.453Z" fill="#514540"/>
<path d="M133.163 291.967C133.783 296.997 141.998 298.003 145.001 294.952C145.271 294.688 144.858 294.259 144.587 294.523C142.077 297.063 134.307 296.469 133.735 291.967C133.704 291.587 133.116 291.587 133.163 291.967Z" fill="#F49E78"/>
<path d="M133.052 292.807C133.227 292.28 133.735 291.933 134.276 292.016C134.641 292.082 134.8 291.504 134.435 291.438C133.577 291.29 132.766 291.768 132.496 292.642C132.369 293.022 132.925 293.187 133.052 292.807Z" fill="#F49E78"/>
<g opacity="0.28">
<path opacity="0.28" d="M132.321 289.955C132.576 290.631 131.432 291.736 129.684 292.115C128.842 292.313 127.952 292.28 127.459 292.115C126.983 291.95 126.633 291.769 126.458 291.456C126.379 291.291 126.379 291.093 126.506 290.878C126.617 290.664 126.856 290.449 127.158 290.268C127.745 289.938 128.365 289.707 129.159 289.526C130.669 289.212 132.051 289.278 132.321 289.955Z" fill="#F28279"/>
</g>
<g opacity="0.28">
<path opacity="0.28" d="M151.42 288.585C151.674 289.262 150.53 290.367 148.782 290.746C147.94 290.944 147.05 290.911 146.558 290.746C146.081 290.581 145.731 290.4 145.557 290.086C145.477 289.921 145.477 289.723 145.604 289.509C145.716 289.295 145.954 289.08 146.256 288.899C146.844 288.569 147.463 288.338 148.258 288.157C149.767 287.827 151.165 287.893 151.42 288.585Z" fill="#F28279"/>
</g>
<path d="M119.547 284.825C118.403 284.858 117.799 285.98 117.894 287.085C118.006 288.206 118.752 289.064 119.849 289.146C120.23 289.179 120.214 288.569 119.849 288.536C118.307 288.421 117.815 285.485 119.531 285.419C119.928 285.402 119.928 284.809 119.547 284.825Z" fill="#F49E78"/>
<path d="M117.99 286.474C118.546 287.2 119.388 287.579 120.262 287.513C120.627 287.48 120.643 286.886 120.262 286.903C119.515 286.952 118.864 286.639 118.387 286.045C118.18 285.732 117.767 286.161 117.99 286.474Z" fill="#F49E78"/>
<path d="M153.644 285.864C154.899 286.177 155.598 284.99 155.757 283.852C155.932 282.598 155.185 281.394 153.914 281.262C153.549 281.229 153.549 281.84 153.914 281.873C154.724 281.955 155.281 282.796 155.217 283.588C155.153 284.363 154.772 285.518 153.803 285.27C153.437 285.188 153.279 285.765 153.644 285.864Z" fill="#F49E78"/>
<path d="M153.994 284.083C154.55 283.572 154.883 282.912 154.995 282.137C155.042 281.757 154.486 281.592 154.438 281.972C154.343 282.631 154.073 283.192 153.58 283.638C153.31 283.901 153.723 284.33 153.994 284.083Z" fill="#F49E78"/>
</svg>
